<svg version="1.1" id="Layer_1" xmlns="http://www.w3.org/2000/svg" xmlns:xlink="http://www.w3.org/1999/xlink" x="0px" y="0px"
	 width="100%" viewBox="0 0 709 709" enable-background="new 0 0 709 709" xml:space="preserve">
<path fill="#FFFFFF" opacity="1.000000" stroke="none" 
	d="
M444.000000,710.000000 
	C296.000000,710.000000 148.500000,710.000000 1.000000,710.000000 
	C1.000000,473.666656 1.000000,237.333328 1.000000,1.000000 
	C237.333328,1.000000 473.666656,1.000000 710.000000,1.000000 
	C710.000000,237.333328 710.000000,473.666656 710.000000,710.000000 
	C621.500000,710.000000 533.000000,710.000000 444.000000,710.000000 
M313.975983,210.934647 
	C313.980804,223.557053 313.972626,236.179459 313.993011,248.801849 
	C314.041534,278.858917 314.103516,308.915985 314.005096,339.721558 
	C314.057007,340.480469 314.108917,341.239410 314.009705,342.831604 
	C313.752838,345.221375 314.803192,345.933380 317.909271,345.437653 
	C342.405762,345.456543 366.903229,345.366608 391.397766,345.594910 
	C395.792450,345.635864 396.973572,344.468750 396.955261,340.035187 
	C396.777740,297.041870 396.843750,254.047562 396.840271,211.053528 
	C396.840118,209.304993 396.840240,207.556458 396.840240,205.983566 
	C397.820435,205.729950 398.133453,205.578201 398.446594,205.577988 
	C424.608185,205.560120 450.769806,205.536819 476.931213,205.606232 
	C478.045166,205.609177 479.156830,206.478546 480.034637,207.494476 
	C480.105743,207.680786 480.176849,207.867096 480.176270,208.981247 
	C480.210541,252.304398 480.244812,295.627533 480.036285,339.755981 
	C480.299744,341.582947 480.563202,343.409912 481.765411,345.453247 
	C508.712891,345.453247 535.660400,345.453247 562.779419,345.453247 
	C562.779419,270.777344 562.779419,196.712433 562.779419,122.398941 
	C424.323395,122.398941 286.109375,122.398941 147.699707,122.398941 
	C147.699707,196.694077 147.699707,270.781342 147.699707,345.084778 
	C175.259857,345.084778 202.594330,345.084778 230.297699,345.084778 
	C230.297699,298.410828 230.297699,252.167023 230.297699,205.527847 
	C238.629074,205.527847 246.595505,205.496841 254.561600,205.534103 
	C273.043304,205.620529 291.524872,205.739914 310.053741,206.540009 
	C311.312012,207.696274 312.570251,208.852524 313.975983,210.934647 
M478.993652,504.980255 
	C478.993652,504.980255 479.015350,505.135620 478.083130,505.010620 
	C452.372925,504.943085 426.662689,504.875519 400.462250,504.343750 
	C399.331604,504.228149 398.200928,504.112579 396.873505,503.078125 
	C396.873505,476.138580 396.873505,449.199036 396.873505,422.166382 
	C313.438629,422.166382 230.574524,422.166382 147.811264,422.166382 
	C147.811264,449.919922 147.811264,477.316742 147.811264,504.882233 
	C148.957779,504.934418 149.777054,505.004211 150.596329,505.004303 
	C183.743835,505.007812 216.891388,504.974335 250.038849,505.010406 
	C298.355225,505.062988 346.671509,505.165009 394.940155,505.643524 
	C394.940155,505.643524 395.007599,506.037842 395.240509,506.476013 
	C395.458069,506.747162 395.737854,506.914215 396.548492,507.651062 
	C396.630737,509.473480 396.780426,511.295746 396.784973,513.118347 
	C396.843964,536.756409 396.882355,560.394409 396.839325,584.837708 
	C396.910889,586.183044 396.982422,587.528442 397.020782,589.587585 
	C397.474396,590.258789 397.928009,590.930054 398.381653,591.601257 
	C398.913055,590.713013 399.444458,589.824768 400.222168,588.571472 
	C400.453979,588.389160 400.701385,588.231201 401.899567,588.194702 
	C407.709290,588.418396 413.518219,588.808594 419.328857,588.834839 
	C437.643127,588.917664 455.958496,588.919373 474.272125,588.782043 
	C476.223999,588.767456 478.167480,587.631042 480.269684,586.269897 
	C480.322571,584.527344 480.375458,582.784729 480.729370,580.298462 
	C480.629608,579.518677 480.529816,578.738953 480.687744,577.064636 
	C480.735596,574.581970 480.818176,572.099426 480.825867,569.616638 
	C480.890442,548.745544 480.941315,527.874512 481.319550,506.871429 
	C481.396759,506.788696 481.553894,506.680481 481.537048,506.627716 
	C481.473358,506.427826 481.353271,506.245850 481.163116,505.600494 
	C481.163116,505.600494 480.984680,505.170288 481.923828,505.163818 
	C508.835785,505.163818 535.747742,505.163818 563.007812,505.163818 
	C563.007812,478.170044 563.053284,451.727081 562.856140,425.285980 
	C562.847473,424.123718 560.624695,421.977020 559.425842,421.971741 
	C533.291077,421.855774 507.155273,421.978912 480.444580,422.033539 
	C480.393860,422.375214 480.343140,422.716858 480.167236,423.980469 
	C480.093109,450.657013 480.018982,477.333527 479.545258,504.184357 
	C479.296204,504.347198 479.103638,504.560944 478.993652,504.980255 
z"/>
<path fill="#013330" opacity="1.000000" stroke="none" 
	d="
M314.160828,341.998322 
	C314.108917,341.239410 314.057007,340.480469 314.345612,339.029846 
	C314.789978,337.687866 314.984497,337.037628 314.984711,336.387299 
	C314.999969,295.178894 315.006622,253.970520 314.965637,212.762161 
	C314.964386,211.505493 314.450500,210.249344 314.100952,208.566071 
	C314.226074,204.675797 312.035583,205.402359 310.006500,205.845932 
	C291.524872,205.739914 273.043304,205.620529 254.561600,205.534103 
	C246.595505,205.496841 238.629074,205.527847 230.297699,205.527847 
	C230.297699,252.167023 230.297699,298.410828 230.297699,345.084778 
	C202.594330,345.084778 175.259857,345.084778 147.699707,345.084778 
	C147.699707,270.781342 147.699707,196.694077 147.699707,122.398941 
	C286.109375,122.398941 424.323395,122.398941 562.779419,122.398941 
	C562.779419,196.712433 562.779419,270.777344 562.779419,345.453247 
	C535.660400,345.453247 508.712891,345.453247 481.355438,344.932678 
	C480.723328,342.591614 480.501221,340.771149 480.279083,338.950684 
	C480.244812,295.627533 480.210541,252.304398 480.373596,208.420029 
	C480.611938,207.740326 480.720184,207.588242 480.681000,207.509857 
	C480.578156,207.304184 480.411072,207.130630 480.269562,206.944275 
	C479.156830,206.478546 478.045166,205.609177 476.931213,205.606232 
	C450.769806,205.536819 424.608185,205.560120 398.446594,205.577988 
	C398.133453,205.578201 397.820435,205.729950 396.840240,205.983566 
	C396.840240,207.556458 396.840118,209.304993 396.840271,211.053528 
	C396.843750,254.047562 396.777740,297.041870 396.955261,340.035187 
	C396.973572,344.468750 395.792450,345.635864 391.397766,345.594910 
	C366.903229,345.366608 342.405762,345.456543 317.432068,344.958679 
	C316.023529,343.652557 315.092194,342.825439 314.160828,341.998322 
z"/>
<path fill="#013330" opacity="1.000000" stroke="none" 
	d="
M394.987823,505.245972 
	C346.671509,505.165009 298.355225,505.062988 250.038849,505.010406 
	C216.891388,504.974335 183.743835,505.007812 150.596329,505.004303 
	C149.777054,505.004211 148.957779,504.934418 147.811264,504.882233 
	C147.811264,477.316742 147.811264,449.919922 147.811264,422.166382 
	C230.574524,422.166382 313.438629,422.166382 396.873505,422.166382 
	C396.873505,449.199036 396.873505,476.138580 396.866608,503.779053 
	C396.826080,504.652344 396.792450,504.824738 396.455139,504.947540 
	C395.763550,505.013947 395.375671,505.129974 394.987823,505.245972 
z"/>
<path fill="#023330" opacity="1.000000" stroke="none" 
	d="
M481.019653,422.056091 
	C507.155273,421.978912 533.291077,421.855774 559.425842,421.971741 
	C560.624695,421.977020 562.847473,424.123718 562.856140,425.285980 
	C563.053284,451.727081 563.007812,478.170044 563.007812,505.163818 
	C535.747742,505.163818 508.835785,505.163818 481.337219,505.026733 
	C480.750580,504.889618 480.402191,505.004852 480.288971,504.755615 
	C480.098785,504.340973 480.021820,504.175507 479.944855,504.010071 
	C480.018982,477.333527 480.093109,450.657013 480.436462,423.429932 
	C480.928375,422.649963 481.033020,422.375519 481.019653,422.056091 
z"/>
<path fill="#73E2D1" opacity="1.000000" stroke="none" 
	d="
M480.402191,505.004852 
	C480.402191,505.004852 480.750580,504.889618 480.867615,505.029968 
	C480.984680,505.170288 481.163116,505.600494 481.078400,506.047424 
	C480.994568,506.664062 480.995422,506.833740 480.996307,507.003418 
	C480.941315,527.874512 480.890442,548.745544 480.825867,569.616638 
	C480.818176,572.099426 480.735596,574.581970 480.249634,577.533447 
	C478.914398,578.582458 478.017273,579.162537 475.904694,580.528625 
	C478.514099,580.824829 479.471222,580.933472 480.428345,581.042114 
	C480.375458,582.784729 480.322571,584.527344 479.712036,586.634766 
	C454.956451,586.998901 430.758392,586.973999 406.560638,587.045044 
	C404.694183,587.050476 402.829712,587.730957 400.964325,588.097656 
	C400.701385,588.231201 400.453979,588.389160 399.735107,588.715332 
	C398.516663,588.864075 397.785339,588.868896 397.053986,588.873779 
	C396.982422,587.528442 396.910889,586.183044 397.196289,584.147827 
	C397.701385,581.651001 397.975830,579.844299 397.978363,578.037231 
	C398.008820,556.375732 397.996246,534.714294 398.001221,513.052795 
	C398.002838,506.005188 398.011230,506.001160 405.271820,506.000763 
	C428.099701,505.999542 450.927612,506.020599 473.755341,505.964996 
	C475.509369,505.960724 477.262054,505.424591 479.015350,505.135620 
	C479.015350,505.135620 478.993652,504.980255 479.339264,504.947998 
	C479.924011,504.945435 480.163116,504.975159 480.402191,505.004852 
z"/>
<path fill="#86DACB" opacity="1.000000" stroke="none" 
	d="
M478.549255,505.073120 
	C477.262054,505.424591 475.509369,505.960724 473.755341,505.964996 
	C450.927612,506.020599 428.099701,505.999542 405.271820,506.000763 
	C398.011230,506.001160 398.002838,506.005188 398.001221,513.052795 
	C397.996246,534.714294 398.008820,556.375732 397.978363,578.037231 
	C397.975830,579.844299 397.701385,581.651001 397.239624,583.745178 
	C396.882355,560.394409 396.843964,536.756409 396.784973,513.118347 
	C396.780426,511.295746 396.630737,509.473480 396.233765,507.063751 
	C395.615204,506.330231 395.311401,506.184052 395.007599,506.037842 
	C395.007599,506.037842 394.940155,505.643524 394.963989,505.444763 
	C395.375671,505.129974 395.763550,505.013947 396.876984,504.938446 
	C398.719177,504.921967 399.835846,504.864960 400.952484,504.807983 
	C426.662689,504.875519 452.372925,504.943085 478.549255,505.073120 
z"/>
<path fill="#86DACB" opacity="1.000000" stroke="none" 
	d="
M401.431946,588.146179 
	C402.829712,587.730957 404.694183,587.050476 406.560638,587.045044 
	C430.758392,586.973999 454.956451,586.998901 479.634644,587.007324 
	C478.167480,587.631042 476.223999,588.767456 474.272125,588.782043 
	C455.958496,588.919373 437.643127,588.917664 419.328857,588.834839 
	C413.518219,588.808594 407.709290,588.418396 401.431946,588.146179 
z"/>
<path fill="#0B2D28" opacity="1.000000" stroke="none" 
	d="
M314.175598,208.992966 
	C314.450500,210.249344 314.964386,211.505493 314.965637,212.762161 
	C315.006622,253.970520 314.999969,295.178894 314.984711,336.387299 
	C314.984497,337.037628 314.789978,337.687866 314.423096,338.655609 
	C314.103516,308.915985 314.041534,278.858917 313.993011,248.801849 
	C313.972626,236.179459 313.980804,223.557053 313.989136,210.217773 
	C314.060028,209.331589 314.117798,209.162277 314.175598,208.992966 
z"/>
<path fill="#F0FFFF" opacity="1.000000" stroke="none" 
	d="
M314.100952,208.566071 
	C314.117798,209.162277 314.060028,209.331589 313.915405,209.754852 
	C312.570251,208.852524 311.312012,207.696274 310.030121,206.192963 
	C312.035583,205.402359 314.226074,204.675797 314.100952,208.566071 
z"/>
<path fill="#86DACB" opacity="1.000000" stroke="none" 
	d="
M480.578857,580.670288 
	C479.471222,580.933472 478.514099,580.824829 475.904694,580.528625 
	C478.017273,579.162537 478.914398,578.582458 480.120789,577.980713 
	C480.529816,578.738953 480.629608,579.518677 480.578857,580.670288 
z"/>
<path fill="#0B2D28" opacity="1.000000" stroke="none" 
	d="
M314.085266,342.414978 
	C315.092194,342.825439 316.023529,343.652557 316.980469,344.822937 
	C314.803192,345.933380 313.752838,345.221375 314.085266,342.414978 
z"/>
<path fill="#F0FFFF" opacity="1.000000" stroke="none" 
	d="
M397.037384,589.230713 
	C397.785339,588.868896 398.516663,588.864075 399.611938,588.897827 
	C399.444458,589.824768 398.913055,590.713013 398.381653,591.601257 
	C397.928009,590.930054 397.474396,590.258789 397.037384,589.230713 
z"/>
<path fill="#4A6461" opacity="1.000000" stroke="none" 
	d="
M480.157684,339.353333 
	C480.501221,340.771149 480.723328,342.591614 480.886047,344.824463 
	C480.563202,343.409912 480.299744,341.582947 480.157684,339.353333 
z"/>
<path fill="#F0FFFF" opacity="1.000000" stroke="none" 
	d="
M400.707367,504.575867 
	C399.835846,504.864960 398.719177,504.921967 397.180664,504.988068 
	C396.792450,504.824738 396.826080,504.652344 396.964996,504.238495 
	C398.200928,504.112579 399.331604,504.228149 400.707367,504.575867 
z"/>
<path fill="#4A6461" opacity="1.000000" stroke="none" 
	d="
M480.152100,207.219376 
	C480.411072,207.130630 480.578156,207.304184 480.681000,207.509857 
	C480.720184,207.588242 480.611938,207.740326 480.409424,207.956116 
	C480.176849,207.867096 480.105743,207.680786 480.152100,207.219376 
z"/>
<path fill="#4A6461" opacity="1.000000" stroke="none" 
	d="
M480.732117,422.044800 
	C481.033020,422.375519 480.928375,422.649963 480.499054,422.968964 
	C480.343140,422.716858 480.393860,422.375214 480.732117,422.044800 
z"/>
<path fill="#F0FFFF" opacity="1.000000" stroke="none" 
	d="
M480.288971,504.755615 
	C480.163116,504.975159 479.924011,504.945435 479.326233,504.870667 
	C479.103638,504.560944 479.296204,504.347198 479.745056,504.097229 
	C480.021820,504.175507 480.098785,504.340973 480.288971,504.755615 
z"/>
<path fill="#F0FFFF" opacity="1.000000" stroke="none" 
	d="
M395.124054,506.256927 
	C395.311401,506.184052 395.615204,506.330231 395.999451,506.726807 
	C395.737854,506.914215 395.458069,506.747162 395.124054,506.256927 
z"/>
<path fill="#F0FFFF" opacity="1.000000" stroke="none" 
	d="
M481.157928,506.937439 
	C480.995422,506.833740 480.994568,506.664062 481.123993,506.275787 
	C481.353271,506.245850 481.473358,506.427826 481.537048,506.627716 
	C481.553894,506.680481 481.396759,506.788696 481.157928,506.937439 
z"/>
</svg>