<svg version="1.1" id="Layer_1" xmlns="http://www.w3.org/2000/svg" xmlns:xlink="http://www.w3.org/1999/xlink" x="0px" y="0px"
	 width="100%" viewBox="0 0 2681 1063" enable-background="new 0 0 2681 1063" xml:space="preserve">
<path fill="#013330" opacity="1.000000" stroke="none" 
	d="
M1.000000,1062.000000 
	C1.000000,709.302429 1.000000,356.604858 1.449821,3.417595 
	C2.399509,2.925250 2.899376,2.920229 3.399243,2.920229 
	C894.767395,2.919813 1786.135498,2.919690 2677.503662,2.922950 
	C2679.002441,2.922956 2680.501221,2.973214 2682.000000,3.000000 
	C2682.000000,355.697601 2682.000000,708.395203 2681.550293,1061.582764 
	C2680.600342,1062.075439 2680.100586,1062.080566 2679.600586,1062.080566 
	C1788.232544,1062.081055 896.864441,1062.081055 5.496374,1062.077759 
	C3.997583,1062.077759 2.498792,1062.026978 1.000000,1062.000000 
M586.817566,543.440735 
	C611.576721,543.440735 636.335815,543.440735 661.184570,543.440735 
	C661.184570,517.666992 661.184570,492.451660 661.184570,467.294312 
	C635.897339,467.294312 610.974243,467.294312 585.954041,467.294312 
	C585.954041,492.725494 585.954041,517.858826 585.022766,543.039246 
	C559.726501,543.002502 534.430298,542.965759 509.167236,542.001160 
	C509.167236,517.092896 509.167236,492.184631 509.167236,467.225433 
	C432.831177,467.225433 357.109436,467.225433 281.334473,467.225433 
	C281.334473,492.487122 281.334473,517.521423 281.334473,543.515503 
	C357.434265,543.515503 433.199799,543.515503 508.992218,544.518127 
	C508.992218,569.404663 508.992218,594.291199 508.992218,619.452881 
	C535.044067,619.452881 560.396973,619.452881 586.054260,619.452881 
	C586.054260,593.752625 586.054260,568.463684 586.817566,543.440735 
M1803.019775,479.097137 
	C1803.019775,446.716278 1803.019775,414.335419 1803.019775,382.050140 
	C1771.829224,382.050140 1741.398926,382.050140 1710.733154,382.050140 
	C1710.733154,414.689697 1710.733154,447.104004 1710.733154,479.953918 
	C1741.515747,479.953918 1772.281250,479.953918 1802.872559,480.883392 
	C1802.854126,495.500153 1802.795532,510.117035 1802.827759,524.733704 
	C1802.866821,542.500122 1802.982544,560.266357 1802.120239,577.992676 
	C1771.670166,577.992676 1741.220093,577.992676 1710.723877,577.992676 
	C1710.723877,675.570251 1710.723877,772.634460 1710.723877,869.934204 
	C1741.499390,869.934204 1772.053101,869.934204 1802.969238,869.934204 
	C1802.969238,772.445740 1802.969238,675.189697 1803.881592,578.159790 
	C1834.294678,578.159790 1864.707886,578.159790 1895.204102,578.159790 
	C1895.204102,545.029663 1895.204102,512.627197 1895.204102,480.252960 
	C1894.383545,480.069061 1893.901733,479.865967 1893.420166,479.866730 
	C1863.266602,479.914185 1833.113159,479.978302 1803.019775,479.097137 
M1146.482666,617.499634 
	C1146.482666,701.072754 1146.482666,784.645874 1146.482666,868.212402 
	C1172.898560,868.212402 1198.487915,868.212402 1224.519653,868.212402 
	C1224.519653,865.934753 1224.519653,863.970032 1224.519653,862.005310 
	C1224.519409,796.177002 1224.509155,730.348755 1224.540649,664.520447 
	C1224.542847,659.861328 1224.706177,655.191895 1225.040527,650.544922 
	C1227.868774,611.230408 1256.805054,585.819214 1295.989990,588.176697 
	C1319.507446,589.591614 1334.936401,600.731201 1341.482300,623.306519 
	C1344.776978,634.668762 1346.677124,646.839294 1346.761841,658.661865 
	C1347.246948,726.319885 1346.997192,793.983154 1346.996826,861.644653 
	C1346.996826,863.773804 1346.996826,865.902893 1346.996826,868.192078 
	C1373.649536,868.192078 1399.880249,868.192078 1426.510864,868.192078 
	C1426.510864,865.901794 1426.510864,863.930725 1426.510864,861.959656 
	C1426.510864,796.464661 1426.500610,730.969666 1426.531738,665.474670 
	C1426.533936,660.648743 1426.562378,655.795715 1427.039917,651.001282 
	C1430.964478,611.596558 1456.746338,585.829468 1498.567505,588.225342 
	C1520.584351,589.486694 1535.757812,600.238464 1543.103027,621.403503 
	C1547.241455,633.328125 1548.959717,645.646423 1548.971680,658.185791 
	C1549.037231,726.347168 1549.002808,794.508667 1549.002930,862.670105 
	C1549.002930,864.465637 1549.003052,866.261169 1549.003052,868.279053 
	C1575.838867,868.279053 1602.269531,868.279053 1628.926758,868.279053 
	C1629.015381,866.752319 1629.156006,865.456299 1629.156250,864.160217 
	C1629.165649,793.498962 1629.201904,722.837585 1629.138916,652.176392 
	C1629.119629,630.579468 1626.580200,609.327942 1619.174805,588.882507 
	C1609.075928,561.000244 1591.597046,540.112976 1562.816406,530.211243 
	C1547.666870,524.999146 1531.927612,523.610840 1516.036133,524.212463 
	C1489.129761,525.231201 1464.404175,533.000488 1444.100342,551.092224 
	C1433.647217,560.406433 1424.882446,571.615601 1415.408325,581.910278 
	C1415.207153,581.465637 1414.466064,579.841125 1413.736084,578.211548 
	C1405.036377,558.791321 1391.397583,544.121216 1372.132568,534.815735 
	C1359.208862,528.573242 1345.477783,525.692810 1331.262207,524.575989 
	C1286.565552,521.064514 1250.968018,536.143250 1227.078735,575.320740 
	C1226.547363,576.192200 1225.812134,576.939270 1224.280640,578.865295 
	C1224.280640,562.240906 1224.280640,547.007080 1224.280640,531.801147 
	C1198.136963,531.801147 1172.548340,531.801147 1146.482666,531.801147 
	C1146.482666,560.247375 1146.482666,588.373474 1146.482666,617.499634 
M1924.460205,602.993286 
	C1922.670776,606.559570 1920.709595,610.050964 1919.118408,613.703552 
	C1900.485229,656.478394 1897.698364,701.034119 1908.371826,745.732300 
	C1922.346069,804.252808 1958.023804,844.523865 2016.215820,863.023743 
	C2049.546875,873.619995 2083.679932,874.429382 2117.982422,868.960632 
	C2159.791260,862.295349 2194.188232,843.162170 2218.589600,807.721680 
	C2229.435547,791.968872 2237.510010,774.992981 2242.030762,756.048645 
	C2213.614014,756.048645 2185.498047,756.048645 2157.255127,756.048645 
	C2156.773682,757.309937 2156.306152,758.540833 2155.833496,759.769836 
	C2150.269531,774.235657 2141.841797,786.682434 2129.204590,795.825684 
	C2102.773193,814.949646 2073.662109,815.821350 2043.981934,806.196716 
	C2016.146973,797.170471 2000.282471,775.955566 1990.944092,749.178894 
	C1987.109863,738.184814 1984.763062,726.921082 1984.319214,714.711243 
	C2071.771484,714.711243 2158.824219,714.711243 2246.049805,714.711243 
	C2248.317383,686.953430 2247.039551,659.938049 2239.939941,633.458557 
	C2226.176758,582.126587 2194.911621,546.659180 2143.883301,530.026917 
	C2109.134521,518.700867 2073.483887,517.668945 2037.754639,524.103760 
	C1988.389893,532.994202 1949.843872,558.042542 1924.460205,602.993286 
M863.499939,714.824951 
	C932.252808,714.824951 1001.005676,714.824951 1069.703979,714.824951 
	C1071.977661,687.296631 1070.749756,660.597473 1063.884521,634.431274 
	C1050.088379,581.848022 1018.021118,545.799316 965.725586,529.415527 
	C929.759216,518.147522 892.879700,517.362976 856.141846,525.132751 
	C802.244873,536.531616 762.703918,566.731628 741.033508,617.999451 
	C723.892273,658.551880 721.884277,701.078552 731.458313,743.461853 
	C744.199463,799.865967 777.270020,840.306519 832.438477,860.558105 
	C867.608093,873.468445 904.001587,874.690430 940.764954,869.075684 
	C988.378845,861.803894 1025.182129,838.314514 1049.535645,796.266479 
	C1056.796753,783.729675 1062.252808,770.479919 1065.632812,756.285889 
	C1064.766479,756.074219 1064.291748,755.857178 1063.816772,755.856689 
	C1037.156128,755.831177 1010.495239,755.776489 983.835815,755.950562 
	C982.475037,755.959473 980.685486,757.681274 979.845642,759.061890 
	C974.601074,767.683167 970.616272,777.294006 964.288269,784.994446 
	C936.245300,819.119690 882.258972,817.314453 852.568420,799.320435 
	C830.410889,785.891785 818.794495,764.999878 812.115540,740.926147 
	C809.802185,732.587524 808.843933,723.872925 807.173462,714.824951 
	C826.558472,714.824951 844.529175,714.824951 863.499939,714.824951 
M596.519897,396.998413 
	C617.999756,396.998413 639.479614,396.998413 661.142456,396.998413 
	C661.142456,328.827942 661.142456,260.967804 661.142456,193.040146 
	C534.319824,193.040146 407.884644,193.040146 281.342529,193.040146 
	C281.342529,261.115448 281.342529,328.982849 281.342529,396.633423 
	C306.753143,396.633423 331.820068,396.633423 357.155670,396.633423 
	C357.155670,353.983673 357.155670,311.703796 357.155670,269.264221 
	C382.667389,269.264221 407.904114,269.264221 433.621155,269.264221 
	C433.621155,311.946594 433.621155,354.355133 433.621155,396.708405 
	C459.033600,396.708405 483.963806,396.708405 509.361206,396.708405 
	C509.361206,354.017395 509.361206,311.616974 509.361206,269.334961 
	C535.074097,269.334961 560.315918,269.334961 586.061462,269.334961 
	C586.061462,312.065735 586.061462,354.444214 586.061462,396.998505 
	C589.554016,396.998505 592.541565,396.998505 596.519897,396.998413 
M2401.993652,661.500000 
	C2401.993652,568.068115 2401.993652,474.636230 2401.993652,381.117065 
	C2375.109863,381.117065 2348.723389,381.117065 2322.237305,381.117065 
	C2322.237305,543.618774 2322.237305,705.837036 2322.237305,868.215088 
	C2348.892578,868.215088 2375.310547,868.215088 2401.993652,868.215088 
	C2401.993652,799.451782 2401.993652,730.975891 2401.993652,661.500000 
z"/>
<path fill="#D8E7E5" opacity="1.000000" stroke="none" 
	d="
M1.000006,1062.500000 
	C2.498792,1062.026978 3.997583,1062.077759 5.496374,1062.077759 
	C896.864441,1062.081055 1788.232544,1062.081055 2679.600586,1062.080566 
	C2680.100586,1062.080566 2680.600342,1062.075439 2681.550293,1062.036377 
	C2681.666748,1062.666748 2681.452148,1063.783691 2680.976318,1063.909058 
	C2679.885010,1064.196167 2678.666748,1064.000000 2677.500000,1064.000000 
	C1786.833374,1064.000000 896.166687,1064.000488 5.500002,1063.958862 
	C3.999999,1063.958862 2.500012,1063.333252 1.000006,1062.500000 
z"/>
<path fill="#DBE5E5" opacity="1.000000" stroke="none" 
	d="
M2682.000000,2.500013 
	C2680.501221,2.973214 2679.002441,2.922956 2677.503662,2.922950 
	C1786.135498,2.919690 894.767395,2.919813 3.399243,2.920229 
	C2.899376,2.920229 2.399509,2.925250 1.449821,2.963963 
	C1.333333,2.333333 1.548027,1.216341 2.023962,1.090954 
	C3.114909,0.803541 4.333333,1.000000 5.500000,1.000000 
	C896.166687,1.000000 1786.833374,0.999508 2677.500000,1.041151 
	C2679.000000,1.041221 2680.500000,1.666694 2682.000000,2.500013 
z"/>
<path fill="#FDFDFD" opacity="1.000000" stroke="none" 
	d="
M1146.482666,616.999634 
	C1146.482666,588.373474 1146.482666,560.247375 1146.482666,531.801147 
	C1172.548340,531.801147 1198.136963,531.801147 1224.280640,531.801147 
	C1224.280640,547.007080 1224.280640,562.240906 1224.280640,578.865295 
	C1225.812134,576.939270 1226.547363,576.192200 1227.078735,575.320740 
	C1250.968018,536.143250 1286.565552,521.064514 1331.262207,524.575989 
	C1345.477783,525.692810 1359.208862,528.573242 1372.132568,534.815735 
	C1391.397583,544.121216 1405.036377,558.791321 1413.736084,578.211548 
	C1414.466064,579.841125 1415.207153,581.465637 1415.408325,581.910278 
	C1424.882446,571.615601 1433.647217,560.406433 1444.100342,551.092224 
	C1464.404175,533.000488 1489.129761,525.231201 1516.036133,524.212463 
	C1531.927612,523.610840 1547.666870,524.999146 1562.816406,530.211243 
	C1591.597046,540.112976 1609.075928,561.000244 1619.174805,588.882507 
	C1626.580200,609.327942 1629.119629,630.579468 1629.138916,652.176392 
	C1629.201904,722.837585 1629.165649,793.498962 1629.156250,864.160217 
	C1629.156006,865.456299 1629.015381,866.752319 1628.926758,868.279053 
	C1602.269531,868.279053 1575.838867,868.279053 1549.003052,868.279053 
	C1549.003052,866.261169 1549.002930,864.465637 1549.002930,862.670105 
	C1549.002808,794.508667 1549.037231,726.347168 1548.971680,658.185791 
	C1548.959717,645.646423 1547.241455,633.328125 1543.103027,621.403503 
	C1535.757812,600.238464 1520.584351,589.486694 1498.567505,588.225342 
	C1456.746338,585.829468 1430.964478,611.596558 1427.039917,651.001282 
	C1426.562378,655.795715 1426.533936,660.648743 1426.531738,665.474670 
	C1426.500610,730.969666 1426.510864,796.464661 1426.510864,861.959656 
	C1426.510864,863.930725 1426.510864,865.901794 1426.510864,868.192078 
	C1399.880249,868.192078 1373.649536,868.192078 1346.996826,868.192078 
	C1346.996826,865.902893 1346.996826,863.773804 1346.996826,861.644653 
	C1346.997192,793.983154 1347.246948,726.319885 1346.761841,658.661865 
	C1346.677124,646.839294 1344.776978,634.668762 1341.482300,623.306519 
	C1334.936401,600.731201 1319.507446,589.591614 1295.989990,588.176697 
	C1256.805054,585.819214 1227.868774,611.230408 1225.040527,650.544922 
	C1224.706177,655.191895 1224.542847,659.861328 1224.540649,664.520447 
	C1224.509155,730.348755 1224.519409,796.177002 1224.519653,862.005310 
	C1224.519653,863.970032 1224.519653,865.934753 1224.519653,868.212402 
	C1198.487915,868.212402 1172.898560,868.212402 1146.482666,868.212402 
	C1146.482666,784.645874 1146.482666,701.072754 1146.482666,616.999634 
z"/>
<path fill="#FDFEFE" opacity="1.000000" stroke="none" 
	d="
M1924.652100,602.676270 
	C1949.843872,558.042542 1988.389893,532.994202 2037.754639,524.103760 
	C2073.483887,517.668945 2109.134521,518.700867 2143.883301,530.026917 
	C2194.911621,546.659180 2226.176758,582.126587 2239.939941,633.458557 
	C2247.039551,659.938049 2248.317383,686.953430 2246.049805,714.711243 
	C2158.824219,714.711243 2071.771484,714.711243 1984.319214,714.711243 
	C1984.763062,726.921082 1987.109863,738.184814 1990.944092,749.178894 
	C2000.282471,775.955566 2016.146973,797.170471 2043.981934,806.196716 
	C2073.662109,815.821350 2102.773193,814.949646 2129.204590,795.825684 
	C2141.841797,786.682434 2150.269531,774.235657 2155.833496,759.769836 
	C2156.306152,758.540833 2156.773682,757.309937 2157.255127,756.048645 
	C2185.498047,756.048645 2213.614014,756.048645 2242.030762,756.048645 
	C2237.510010,774.992981 2229.435547,791.968872 2218.589600,807.721680 
	C2194.188232,843.162170 2159.791260,862.295349 2117.982422,868.960632 
	C2083.679932,874.429382 2049.546875,873.619995 2016.215820,863.023743 
	C1958.023804,844.523865 1922.346069,804.252808 1908.371826,745.732300 
	C1897.698364,701.034119 1900.485229,656.478394 1919.118408,613.703552 
	C1920.709595,610.050964 1922.670776,606.559570 1924.652100,602.676270 
M2107.165039,585.227417 
	C2084.563721,578.448059 2061.955322,578.750549 2040.100586,587.416870 
	C2010.680786,599.083008 1995.440552,622.816956 1987.941895,652.415710 
	C1987.394653,654.576355 1987.123413,656.806946 1986.696411,659.155945 
	C2045.007568,659.155945 2102.711914,659.155945 2160.427734,659.155945 
	C2159.204346,625.408264 2138.375977,596.368408 2107.165039,585.227417 
z"/>
<path fill="#FDFEFE" opacity="1.000000" stroke="none" 
	d="
M862.999878,714.824951 
	C844.529175,714.824951 826.558472,714.824951 807.173462,714.824951 
	C808.843933,723.872925 809.802185,732.587524 812.115540,740.926147 
	C818.794495,764.999878 830.410889,785.891785 852.568420,799.320435 
	C882.258972,817.314453 936.245300,819.119690 964.288269,784.994446 
	C970.616272,777.294006 974.601074,767.683167 979.845642,759.061890 
	C980.685486,757.681274 982.475037,755.959473 983.835815,755.950562 
	C1010.495239,755.776489 1037.156128,755.831177 1063.816772,755.856689 
	C1064.291748,755.857178 1064.766479,756.074219 1065.632812,756.285889 
	C1062.252808,770.479919 1056.796753,783.729675 1049.535645,796.266479 
	C1025.182129,838.314514 988.378845,861.803894 940.764954,869.075684 
	C904.001587,874.690430 867.608093,873.468445 832.438477,860.558105 
	C777.270020,840.306519 744.199463,799.865967 731.458313,743.461853 
	C721.884277,701.078552 723.892273,658.551880 741.033508,617.999451 
	C762.703918,566.731628 802.244873,536.531616 856.141846,525.132751 
	C892.879700,517.362976 929.759216,518.147522 965.725586,529.415527 
	C1018.021118,545.799316 1050.088379,581.848022 1063.884521,634.431274 
	C1070.749756,660.597473 1071.977661,687.296631 1069.703979,714.824951 
	C1001.005676,714.824951 932.252808,714.824951 862.999878,714.824951 
M826.296143,617.831177 
	C818.225586,630.518433 812.666138,644.138550 810.305115,659.299194 
	C868.508301,659.299194 926.082153,659.299194 984.329407,659.299194 
	C983.890747,655.775269 983.559143,652.532349 983.075378,649.312317 
	C977.176147,610.046570 946.164551,582.359741 906.486511,580.886536 
	C873.814941,579.673401 846.168762,589.469849 826.296143,617.831177 
z"/>
<path fill="#FEFEFE" opacity="1.000000" stroke="none" 
	d="
M596.024475,396.998474 
	C592.541565,396.998505 589.554016,396.998505 586.061462,396.998505 
	C586.061462,354.444214 586.061462,312.065735 586.061462,269.334961 
	C560.315918,269.334961 535.074097,269.334961 509.361206,269.334961 
	C509.361206,311.616974 509.361206,354.017395 509.361206,396.708405 
	C483.963806,396.708405 459.033600,396.708405 433.621155,396.708405 
	C433.621155,354.355133 433.621155,311.946594 433.621155,269.264221 
	C407.904114,269.264221 382.667389,269.264221 357.155670,269.264221 
	C357.155670,311.703796 357.155670,353.983673 357.155670,396.633423 
	C331.820068,396.633423 306.753143,396.633423 281.342529,396.633423 
	C281.342529,328.982849 281.342529,261.115448 281.342529,193.040146 
	C407.884644,193.040146 534.319824,193.040146 661.142456,193.040146 
	C661.142456,260.967804 661.142456,328.827942 661.142456,396.998413 
	C639.479614,396.998413 617.999756,396.998413 596.024475,396.998474 
z"/>
<path fill="#FEFFFF" opacity="1.000000" stroke="none" 
	d="
M2401.993652,662.000000 
	C2401.993652,730.975891 2401.993652,799.451782 2401.993652,868.215088 
	C2375.310547,868.215088 2348.892578,868.215088 2322.237305,868.215088 
	C2322.237305,705.837036 2322.237305,543.618774 2322.237305,381.117065 
	C2348.723389,381.117065 2375.109863,381.117065 2401.993652,381.117065 
	C2401.993652,474.636230 2401.993652,568.068115 2401.993652,662.000000 
z"/>
<path fill="#FEFFFF" opacity="1.000000" stroke="none" 
	d="
M1802.969238,577.933655 
	C1802.969238,675.189697 1802.969238,772.445740 1802.969238,869.934204 
	C1772.053101,869.934204 1741.499390,869.934204 1710.723877,869.934204 
	C1710.723877,772.634460 1710.723877,675.570251 1710.723877,577.992676 
	C1741.220093,577.992676 1771.670166,577.992676 1802.581543,577.975708 
	C1803.042969,577.958740 1802.969238,577.933655 1802.969238,577.933655 
z"/>
<path fill="#FEFFFF" opacity="1.000000" stroke="none" 
	d="
M508.965332,543.515503 
	C433.199799,543.515503 357.434265,543.515503 281.334473,543.515503 
	C281.334473,517.521423 281.334473,492.487122 281.334473,467.225433 
	C357.109436,467.225433 432.831177,467.225433 509.167236,467.225433 
	C509.167236,492.184631 509.167236,517.092896 508.969879,542.571655 
	C508.772522,543.142212 508.965332,543.515503 508.965332,543.515503 
z"/>
<path fill="#73E1D0" opacity="1.000000" stroke="none" 
	d="
M1802.959595,480.040863 
	C1833.113159,479.978302 1863.266602,479.914185 1893.420166,479.866730 
	C1893.901733,479.865967 1894.383545,480.069061 1895.204102,480.252960 
	C1895.204102,512.627197 1895.204102,545.029663 1895.204102,578.159790 
	C1864.707886,578.159790 1834.294678,578.159790 1803.425415,578.046753 
	C1802.969238,577.933655 1803.042969,577.958740 1803.054077,577.995728 
	C1802.982544,560.266357 1802.866821,542.500122 1802.827759,524.733704 
	C1802.795532,510.117035 1802.854126,495.500153 1802.952271,480.454834 
	C1803.031982,480.026245 1802.959595,480.040863 1802.959595,480.040863 
z"/>
<path fill="#FEFFFF" opacity="1.000000" stroke="none" 
	d="
M1803.039307,479.990082 
	C1772.281250,479.953918 1741.515747,479.953918 1710.733154,479.953918 
	C1710.733154,447.104004 1710.733154,414.689697 1710.733154,382.050140 
	C1741.398926,382.050140 1771.829224,382.050140 1803.019775,382.050140 
	C1803.019775,414.335419 1803.019775,446.716278 1802.989746,479.569000 
	C1802.959595,480.040863 1803.031982,480.026245 1803.039307,479.990082 
z"/>
<path fill="#73DFCF" opacity="1.000000" stroke="none" 
	d="
M508.978760,544.016846 
	C508.965332,543.515503 508.772522,543.142212 508.953308,543.035645 
	C534.430298,542.965759 559.726501,543.002502 585.561646,543.034790 
	C586.100525,543.030273 586.054260,543.174805 586.054260,543.174805 
	C586.054260,568.463684 586.054260,593.752625 586.054260,619.452881 
	C560.396973,619.452881 535.044067,619.452881 508.992218,619.452881 
	C508.992218,594.291199 508.992218,569.404663 508.978760,544.016846 
z"/>
<path fill="#FDFDFD" opacity="1.000000" stroke="none" 
	d="
M586.435913,543.307739 
	C586.054260,543.174805 586.100525,543.030273 586.027283,543.011230 
	C585.954041,517.858826 585.954041,492.725494 585.954041,467.294312 
	C610.974243,467.294312 635.897339,467.294312 661.184570,467.294312 
	C661.184570,492.451660 661.184570,517.666992 661.184570,543.440735 
	C636.335815,543.440735 611.576721,543.440735 586.435913,543.307739 
z"/>
<path fill="#023430" opacity="1.000000" stroke="none" 
	d="
M2107.523682,585.393738 
	C2138.375977,596.368408 2159.204346,625.408264 2160.427734,659.155945 
	C2102.711914,659.155945 2045.007568,659.155945 1986.696411,659.155945 
	C1987.123413,656.806946 1987.394653,654.576355 1987.941895,652.415710 
	C1995.440552,622.816956 2010.680786,599.083008 2040.100586,587.416870 
	C2061.955322,578.750549 2084.563721,578.448059 2107.523682,585.393738 
z"/>
<path fill="#023431" opacity="1.000000" stroke="none" 
	d="
M826.499390,617.532104 
	C846.168762,589.469849 873.814941,579.673401 906.486511,580.886536 
	C946.164551,582.359741 977.176147,610.046570 983.075378,649.312317 
	C983.559143,652.532349 983.890747,655.775269 984.329407,659.299194 
	C926.082153,659.299194 868.508301,659.299194 810.305115,659.299194 
	C812.666138,644.138550 818.225586,630.518433 826.499390,617.532104 
z"/>
</svg>