<svg version="1.1" id="Layer_1" xmlns="http://www.w3.org/2000/svg" xmlns:xlink="http://www.w3.org/1999/xlink" x="0px" y="0px"
	 width="100%" viewBox="0 0 2682 1520" enable-background="new 0 0 2682 1520" xml:space="preserve">
<path fill="#FFFFFF" opacity="1.000000" stroke="none" 
	d="
M1767.000000,1521.000000 
	C1178.000000,1521.000000 589.500000,1521.000000 1.000000,1521.000000 
	C1.000000,1014.333313 1.000000,507.666656 1.000000,1.000000 
	C895.000000,1.000000 1789.000000,1.000000 2683.000000,1.000000 
	C2683.000000,507.666656 2683.000000,1014.333313 2683.000000,1521.000000 
	C2377.833252,1521.000000 2072.666748,1521.000000 1767.000000,1521.000000 
M1803.000000,561.460083 
	C1803.000000,564.544250 1803.000000,567.628418 1803.000000,570.676086 
	C1834.388550,570.676086 1864.955200,570.676086 1895.587524,570.676086 
	C1895.587524,537.667053 1895.587524,504.983673 1895.587524,472.325928 
	C1864.607178,472.325928 1834.040527,472.325928 1803.000000,472.325928 
	C1803.000000,501.923767 1803.000000,531.198242 1803.000000,561.460083 
M559.500000,612.000000 
	C568.243835,612.000000 576.987671,612.000000 585.651978,612.000000 
	C585.651978,585.939941 585.651978,560.714783 585.651978,535.425415 
	C559.958862,535.425415 534.616211,535.425415 509.332581,535.425415 
	C509.332581,561.081543 509.332581,586.310974 509.332581,612.000000 
	C525.940674,612.000000 542.220337,612.000000 559.500000,612.000000 
z"/>
<path fill="#73E2D0" opacity="1.000000" stroke="none" 
	d="
M1803.000000,560.966431 
	C1803.000000,531.198242 1803.000000,501.923767 1803.000000,472.325928 
	C1834.040527,472.325928 1864.607178,472.325928 1895.587524,472.325928 
	C1895.587524,504.983673 1895.587524,537.667053 1895.587524,570.676086 
	C1864.955200,570.676086 1834.388550,570.676086 1803.000000,570.676086 
	C1803.000000,567.628418 1803.000000,564.544250 1803.000000,560.966431 
z"/>
<path fill="#73E2D0" opacity="1.000000" stroke="none" 
	d="
M559.000000,612.000000 
	C542.220337,612.000000 525.940674,612.000000 509.332581,612.000000 
	C509.332581,586.310974 509.332581,561.081543 509.332581,535.425415 
	C534.616211,535.425415 559.958862,535.425415 585.651978,535.425415 
	C585.651978,560.714783 585.651978,585.939941 585.651978,612.000000 
	C576.987671,612.000000 568.243835,612.000000 559.000000,612.000000 
z"/>
</svg>