<svg version="1.1" id="Layer_1" xmlns="http://www.w3.org/2000/svg" xmlns:xlink="http://www.w3.org/1999/xlink" x="0px" y="0px"
	 width="100%" viewBox="0 0 3830 1520" enable-background="new 0 0 3830 1520" xml:space="preserve">
<path fill="#FFFFFF" opacity="1.000000" stroke="none" 
	d="
M2588.000000,1522.000000 
	C1725.333374,1522.000000 863.666687,1522.000000 2.000000,1522.000000 
	C2.000000,1015.333313 2.000000,508.666656 2.000000,2.000000 
	C1278.666626,2.000000 2555.333252,2.000000 3832.000000,2.000000 
	C3832.000000,508.666656 3832.000000,1015.333313 3832.000000,1522.000000 
	C3417.666748,1522.000000 3003.333252,1522.000000 2588.000000,1522.000000 
M555.898376,753.685791 
	C531.180664,753.734375 506.462982,753.782898 481.709717,751.978271 
	C481.709717,727.452271 481.709717,702.926208 481.709717,678.118347 
	C404.810211,678.118347 329.062286,678.118347 252.913147,678.118347 
	C252.913147,703.328125 252.913147,728.075806 252.913147,753.251709 
	C255.057404,753.421509 256.658386,753.642334 258.261719,753.660950 
	C279.215668,753.904358 300.169586,754.256897 321.124207,754.314270 
	C374.047699,754.459167 426.971558,754.468018 479.951233,756.336548 
	C480.742615,780.741943 479.356537,805.205933 480.691162,829.509766 
	C507.027374,829.509766 532.124756,829.509766 558.077820,829.509766 
	C558.077820,803.961670 558.077820,779.117126 559.928772,754.360352 
	C572.253723,754.354004 584.579468,754.436523 596.903320,754.316101 
	C609.038635,754.197571 621.216675,754.854431 633.037598,753.880798 
	C633.037598,727.856567 633.037598,703.029724 633.037598,678.357300 
	C607.604919,678.357300 582.814026,678.357300 557.727478,678.357300 
	C557.727478,704.010315 557.727478,728.966248 555.898376,753.685791 
M1773.996094,692.368469 
	C1774.030884,724.267395 1774.065674,756.166382 1772.224243,788.284912 
	C1742.418335,788.323120 1712.612427,788.361328 1682.981934,788.399292 
	C1682.981934,886.884949 1682.981934,983.936707 1682.981934,1081.033691 
	C1714.090454,1081.033691 1744.528931,1081.033691 1775.683594,1081.033691 
	C1775.683594,1076.778931 1775.683716,1073.173340 1775.683716,1069.567749 
	C1775.683716,980.002258 1775.680664,890.436829 1775.694336,800.871338 
	C1775.694824,797.213196 1775.850952,793.555115 1777.816650,789.838745 
	C1787.799805,789.834351 1797.782837,789.828247 1807.765991,789.826050 
	C1817.749146,789.823853 1827.733398,789.925232 1837.714966,789.797302 
	C1847.540039,789.671448 1857.424438,790.381531 1867.114258,789.346191 
	C1867.114258,755.656494 1867.114258,723.210266 1867.114258,689.859253 
	C1836.202637,689.859253 1805.991455,689.859253 1775.734741,688.010498 
	C1775.522217,656.231262 1775.934448,624.440918 1775.506836,592.781433 
	C1746.658936,591.027649 1689.954712,591.796875 1682.821411,593.903137 
	C1682.821411,625.778442 1682.821411,657.623840 1682.821411,690.564148 
	C1713.533936,690.564148 1743.747559,690.564148 1773.996094,692.368469 
M1520.322632,1018.999939 
	C1520.322632,1038.901855 1520.322632,1058.803711 1520.322632,1079.135742 
	C1547.820923,1079.135742 1574.280518,1079.135742 1601.677368,1079.135742 
	C1601.677368,1075.037598 1601.677368,1071.446289 1601.677368,1067.855103 
	C1601.677368,1005.859009 1601.754883,943.862671 1601.616943,881.866882 
	C1601.586670,868.256531 1600.929199,854.641663 1600.312988,841.040039 
	C1599.475952,822.561523 1594.963257,804.836975 1587.140137,788.193054 
	C1576.040527,764.578247 1558.579346,747.547546 1533.062988,739.854187 
	C1511.348511,733.307007 1489.276855,732.426575 1467.107056,736.828613 
	C1443.664673,741.483521 1423.157227,751.924255 1406.865356,769.729004 
	C1400.470581,776.717712 1394.588745,784.175903 1388.082153,791.883423 
	C1387.190430,790.144836 1386.415527,788.745178 1385.739258,787.299438 
	C1374.694458,763.685974 1356.665649,747.979614 1331.892456,740.096680 
	C1319.163452,736.046326 1306.041260,734.405273 1292.668701,734.279968 
	C1253.862915,733.916321 1222.974243,748.657776 1201.423096,781.542480 
	C1200.431396,783.055664 1199.146240,784.376587 1196.346191,787.815674 
	C1196.346191,771.020020 1196.346191,756.644775 1196.346191,742.360962 
	C1169.782715,742.360962 1144.346191,742.360962 1118.984863,742.360962 
	C1116.813965,767.383118 1117.787598,1072.155762 1119.936279,1079.112549 
	C1145.211304,1079.112549 1170.421021,1079.112549 1196.345337,1079.112549 
	C1196.345337,1074.934326 1196.345337,1071.321411 1196.345337,1067.708618 
	C1196.345337,1005.379211 1196.269897,943.049561 1196.432861,880.720581 
	C1196.455322,872.126038 1196.931152,863.402039 1198.465698,854.968872 
	C1201.772583,836.793823 1209.440430,820.840210 1225.291382,810.057617 
	C1238.211914,801.268433 1252.709106,799.055542 1268.084961,799.578552 
	C1288.732666,800.280823 1304.315186,810.613953 1311.854980,829.944702 
	C1316.488892,841.825134 1318.351196,854.239258 1318.343018,866.990723 
	C1318.299561,933.986511 1318.322754,1000.982239 1318.322754,1067.978027 
	C1318.322754,1071.553101 1318.322632,1075.128174 1318.322632,1079.085449 
	C1345.463745,1079.085449 1371.577271,1079.085449 1398.345337,1079.085449 
	C1398.345337,1074.868164 1398.345337,1071.244629 1398.345337,1067.621094 
	C1398.345337,1005.291687 1398.269775,942.962036 1398.433228,880.633057 
	C1398.455688,872.037048 1399.101440,863.354553 1400.456299,854.871460 
	C1402.362305,842.937866 1406.722046,831.736389 1414.405029,822.229065 
	C1431.896362,800.584167 1455.409302,796.536560 1481.049805,800.955017 
	C1496.593994,803.633667 1507.081177,813.708130 1513.155151,828.101562 
	C1518.115356,839.855652 1520.315186,852.248901 1520.317993,865.009460 
	C1520.329102,915.672913 1520.322632,966.336426 1520.322632,1018.999939 
M1886.804688,833.785645 
	C1871.015869,877.691406 1869.922974,922.299805 1882.612549,966.863708 
	C1891.337158,997.503296 1907.978394,1023.686401 1932.746460,1044.463379 
	C1967.755615,1073.830933 2009.314575,1082.778564 2053.382812,1083.468262 
	C2065.552979,1083.658813 2077.858398,1081.894043 2089.939209,1079.993774 
	C2150.381592,1070.487061 2190.277832,1036.030273 2211.202637,978.987061 
	C2212.610840,975.148682 2213.295898,971.045166 2214.432373,966.615967 
	C2185.147217,966.615967 2157.203613,966.615967 2129.026611,966.615967 
	C2127.829834,969.516174 2126.829102,972.308105 2125.552979,974.968018 
	C2120.627441,985.234802 2114.686768,994.888489 2105.767822,1002.146301 
	C2075.732910,1026.586792 2042.079102,1028.386353 2008.485229,1013.010498 
	C1972.372437,996.481812 1960.839844,963.290161 1956.496338,925.637939 
	C2044.260376,925.637939 2130.836670,925.637939 2217.776611,925.637939 
	C2220.635254,910.602295 2219.627441,896.178162 2218.521240,881.602539 
	C2217.153809,863.583130 2213.924316,846.075806 2207.851807,829.104004 
	C2194.955322,793.060425 2171.853516,766.083008 2137.368164,748.785706 
	C2111.182617,735.651306 2083.136475,731.472778 2054.467285,730.471252 
	C2036.207764,729.833435 2017.937622,731.750427 2000.177979,736.135803 
	C1946.626953,749.359070 1907.884155,780.207397 1886.804688,833.785645 
M725.877502,802.913513 
	C721.801819,810.523438 717.052795,817.854065 713.761475,825.789368 
	C694.734619,871.662720 693.082947,918.785217 706.174011,966.252197 
	C714.867615,997.774597 732.062622,1024.616333 757.460938,1045.477417 
	C792.287231,1074.082153 833.719543,1083.060669 877.511658,1083.492065 
	C889.032776,1083.605713 900.645142,1081.906128 912.097717,1080.232300 
	C960.447144,1073.166382 997.863647,1049.390625 1022.305054,1006.579773 
	C1029.361328,994.219971 1035.657837,981.396790 1037.807983,966.710876 
	C1009.199463,966.710876 980.985779,966.710876 952.682129,966.710876 
	C951.686340,969.159485 950.882751,971.334473 949.931458,973.442749 
	C942.466431,989.987061 931.378784,1003.276062 915.262573,1012.078735 
	C878.875977,1031.953003 813.772705,1025.805176 790.148560,967.740784 
	C784.777710,954.540222 781.062012,940.988586 780.478455,925.647217 
	C867.942322,925.647217 954.772949,925.647217 1042.346558,925.647217 
	C1042.346558,912.535034 1042.244995,900.370239 1042.372192,888.207764 
	C1042.533325,872.790039 1039.819702,857.773010 1035.820312,843.013489 
	C1021.579224,790.456543 988.894714,755.098999 936.555054,739.189880 
	C903.680847,729.197388 869.992798,728.078674 836.131653,733.764099 
	C790.384399,741.445374 753.165466,762.958374 725.877502,802.913513 
M608.976379,608.341309 
	C616.893372,608.341309 624.810425,608.341309 633.071167,608.341309 
	C633.071167,539.318115 633.071167,471.232361 633.071167,403.468506 
	C506.069916,403.468506 379.675659,403.468506 252.988129,403.468506 
	C252.988129,472.361694 252.988129,540.106018 252.988129,607.636963 
	C278.799347,607.636963 303.943298,607.636963 329.673279,607.636963 
	C329.673279,596.329895 329.673248,585.716187 329.673248,575.102417 
	C329.673248,564.773193 329.673248,554.443970 329.673248,544.114746 
	C329.673248,533.452332 329.643127,522.789795 329.681824,512.127563 
	C329.719849,501.644531 329.498932,491.144531 329.831726,480.953217 
	C355.827148,480.953217 380.328156,480.953217 405.873566,480.953217 
	C405.873566,523.653442 405.873566,565.755554 405.873566,607.557617 
	C431.685974,607.557617 456.440704,607.557617 481.945312,607.557617 
	C481.945312,564.931274 481.945312,523.082947 481.945312,481.024658 
	C507.456207,481.024658 532.211670,481.024658 558.016357,481.024658 
	C558.016357,523.798584 558.016357,565.900879 558.016357,608.341309 
	C575.042114,608.341309 591.012024,608.341309 608.976379,608.341309 
M2374.335693,1003.000061 
	C2374.213379,866.058533 2374.091553,729.117004 2373.948975,592.175476 
	C2373.948730,591.905457 2373.681152,591.604248 2373.475342,591.374268 
	C2373.256348,591.129761 2372.961426,590.953125 2372.977539,590.965820 
	C2346.529541,590.965820 2320.363770,590.965820 2294.286133,590.965820 
	C2294.286133,754.051941 2294.286133,916.498535 2294.286133,1079.188965 
	C2321.072510,1079.188965 2347.235107,1079.188965 2374.335449,1079.188965 
	C2374.335449,1054.144653 2374.335449,1029.572388 2374.335693,1003.000061 
M3144.415527,1081.078125 
	C3158.750977,1083.865601 3170.977051,1079.495361 3181.515869,1068.834839 
	C3182.220703,1073.202026 3182.723389,1076.317383 3183.205322,1079.303467 
	C3188.534424,1079.303467 3193.112305,1079.303467 3197.985352,1079.303467 
	C3197.985352,1029.384644 3197.985352,979.874390 3197.985352,930.065430 
	C3192.721924,930.065430 3187.866699,930.065430 3182.153320,930.065430 
	C3182.153320,953.922852 3182.153320,977.345154 3182.153320,1002.249268 
	C3168.344971,988.327637 3153.503174,985.155945 3136.635986,991.460144 
	C3119.038818,998.037109 3110.830078,1011.721375 3108.725830,1029.402710 
	C3106.099854,1051.467407 3118.019775,1076.029907 3144.415527,1081.078125 
M2883.262207,1071.873779 
	C2900.496826,1088.362305 2931.117676,1083.455078 2944.593018,1063.820923 
	C2953.687988,1050.569702 2954.570557,1035.600342 2950.976074,1020.731506 
	C2942.935547,987.472046 2900.288086,978.627502 2882.650635,999.606018 
	C2881.989746,1000.392151 2880.469971,1000.456116 2878.197998,1001.268860 
	C2878.197998,976.874817 2878.197998,953.383484 2878.197998,930.239136 
	C2872.362549,930.239136 2867.499756,930.239136 2862.986328,930.239136 
	C2862.986328,980.327087 2862.986328,1029.780884 2862.986328,1079.412964 
	C2868.297119,1079.412964 2872.907959,1079.412964 2876.829346,1079.412964 
	C2880.299561,1077.023926 2875.428467,1071.000732 2883.262207,1071.873779 
M3399.712158,1009.000061 
	C3399.712158,982.791199 3399.712158,956.582336 3399.712158,930.088989 
	C3393.911133,930.088989 3389.072998,930.088989 3383.431641,930.088989 
	C3383.431641,953.707581 3383.431641,976.859436 3383.431641,1001.769165 
	C3373.728760,992.620300 3363.742676,987.537598 3351.983887,988.437927 
	C3340.499512,989.317322 3329.759277,993.063782 3321.714600,1001.861938 
	C3306.384766,1018.628113 3305.755371,1048.727417 3320.061768,1066.408081 
	C3326.895996,1074.854370 3336.047852,1079.446655 3346.426758,1081.260864 
	C3360.194824,1083.667358 3372.371582,1079.753662 3382.721680,1068.442993 
	C3383.490967,1073.271606 3383.984619,1076.368408 3384.438721,1079.218994 
	C3389.640137,1079.218994 3394.194092,1079.218994 3399.712158,1079.218994 
	C3399.712158,1056.156982 3399.712158,1033.578613 3399.712158,1009.000061 
M3241.353760,851.519958 
	C3243.132080,868.285339 3252.089600,880.041626 3267.407715,886.290283 
	C3284.547119,893.281982 3300.417236,890.850891 3313.851074,875.955200 
	C3314.216553,880.383728 3314.482422,883.606384 3314.774414,887.143921 
	C3320.023193,887.143921 3324.817139,887.143921 3329.840576,887.143921 
	C3329.840576,837.144470 3329.840576,787.713989 3329.840576,738.280273 
	C3324.502441,738.280273 3319.728516,738.280273 3314.293457,738.280273 
	C3314.293457,750.517944 3314.293457,762.114929 3314.293457,773.711914 
	C3314.293457,785.537292 3314.293457,797.362671 3314.293457,809.546570 
	C3312.802002,808.970032 3312.108643,808.920410 3311.796387,808.549805 
	C3294.081055,787.528503 3257.390625,795.957397 3246.122070,819.043518 
	C3241.333984,828.853027 3239.323486,839.062561 3241.353760,851.519958 
M2560.474365,1081.117920 
	C2572.492432,1083.132446 2583.702881,1080.909424 2593.633057,1073.887573 
	C2610.258057,1062.131348 2614.058838,1045.047852 2611.535400,1026.255737 
	C2609.291748,1009.549927 2600.175293,997.196716 2584.010498,991.343811 
	C2568.904785,985.874390 2554.642822,987.477844 2542.356934,998.877930 
	C2541.668213,999.517151 2540.706787,999.862488 2539.261230,1000.697388 
	C2538.703857,997.151123 2538.209473,994.006287 2537.624023,990.280701 
	C2535.189697,990.280701 2532.903564,990.213928 2530.623047,990.298340 
	C2528.077637,990.392578 2525.537354,990.624146 2522.853027,990.805481 
	C2522.853027,1034.663208 2522.853027,1077.781616 2522.853027,1121.168091 
	C2528.215576,1121.168091 2533.003418,1121.168091 2538.392822,1121.168091 
	C2538.392822,1111.996704 2538.273438,1103.364502 2538.427002,1094.736938 
	C2538.574219,1086.456177 2537.753906,1078.087036 2538.820312,1070.497681 
	C2546.160400,1074.132812 2552.548828,1077.296631 2560.474365,1081.117920 
M3419.610840,1036.774292 
	C3419.736328,1060.961792 3431.443359,1076.417358 3452.992432,1080.844604 
	C3474.116943,1085.184692 3495.312012,1075.620361 3503.169678,1057.827515 
	C3499.116699,1055.328857 3495.008057,1052.795898 3490.996826,1050.322876 
	C3478.827637,1065.165527 3466.087646,1069.584106 3452.385498,1064.151245 
	C3442.229980,1060.124634 3436.786865,1051.406372 3437.462891,1039.715820 
	C3448.730225,1039.715820 3460.030762,1039.715942 3471.331299,1039.715942 
	C3482.537842,1039.715942 3493.744141,1039.715820 3504.783203,1039.715820 
	C3506.374023,1026.621948 3503.988037,1014.731079 3497.715088,1005.380554 
	C3495.529785,1002.123169 3492.803223,998.958374 3489.660645,996.657288 
	C3468.391846,981.083740 3429.411377,986.540466 3420.826416,1020.201538 
	C3419.618408,1024.938965 3419.977295,1030.076050 3419.610840,1036.774292 
M2895.923096,825.153564 
	C2893.989502,820.953979 2892.503906,816.469238 2890.043701,812.604797 
	C2880.131104,797.033508 2855.078613,791.560669 2835.343018,801.144653 
	C2817.203125,809.953735 2811.499268,826.234680 2811.791016,844.940308 
	C2812.021973,859.764343 2817.062988,872.679504 2829.409424,882.288879 
	C2845.123779,894.519714 2882.557129,893.382019 2896.557861,866.405334 
	C2892.366211,863.652405 2888.107910,860.855774 2883.963135,858.133789 
	C2871.647705,872.949280 2858.854736,877.647400 2846.032715,872.655884 
	C2835.202393,868.439880 2829.799072,860.015320 2830.395020,847.247803 
	C2852.792725,847.247803 2875.248291,847.247803 2899.033447,847.247803 
	C2898.024170,839.665161 2897.161377,833.184265 2895.923096,825.153564 
M3281.597656,1079.716431 
	C3284.893799,1079.716431 3288.190186,1079.716431 3291.833252,1079.716431 
	C3292.050537,1076.849365 3292.366455,1074.584839 3292.371338,1072.319946 
	C3292.411133,1053.338623 3292.131104,1034.352417 3292.496094,1015.378113 
	C3292.702148,1004.665833 3287.559326,997.929321 3278.733643,993.055664 
	C3262.828369,984.272339 3234.014404,988.636475 3222.789307,1000.761597 
	C3223.941162,1002.637817 3225.030029,1004.648010 3226.349121,1006.493835 
	C3227.657227,1008.324402 3229.197754,1009.989258 3229.480225,1010.330444 
	C3238.571045,1007.912231 3246.366455,1004.491455 3254.346680,1003.985657 
	C3273.142334,1002.794312 3277.784424,1008.561218 3275.486572,1028.190674 
	C3272.929932,1027.460083 3270.437744,1026.795166 3267.974854,1026.035767 
	C3257.176025,1022.706238 3246.347412,1022.999573 3235.638184,1026.194092 
	C3223.844482,1029.712158 3214.598633,1041.949219 3217.330078,1058.411255 
	C3219.542969,1071.748169 3231.095947,1080.900391 3245.598877,1081.728394 
	C3256.675049,1082.360718 3266.333984,1078.522461 3275.178711,1071.918213 
	C3276.516357,1076.933960 3276.599609,1077.063110 3281.597656,1079.716431 
M3078.288330,812.081238 
	C3080.278564,811.960144 3082.267822,811.752625 3084.259277,811.731445 
	C3103.469482,811.526855 3107.220459,815.439331 3106.047607,834.479065 
	C3106.018066,834.959534 3105.338623,835.399963 3104.598877,836.302368 
	C3094.812012,832.198486 3084.351074,831.131897 3073.679199,832.335632 
	C3055.638672,834.370605 3046.960205,845.165894 3047.609375,864.555786 
	C3048.072266,878.383667 3060.072266,889.053955 3075.837158,889.724670 
	C3085.819336,890.149353 3094.865479,887.548706 3102.959717,881.652161 
	C3103.709473,881.105957 3104.643799,880.812866 3105.611816,880.344604 
	C3106.133301,882.748779 3106.603027,884.914978 3107.084717,887.134888 
	C3112.235107,887.134888 3117.033447,887.134888 3122.391113,887.134888 
	C3122.391113,865.942749 3121.689941,845.295715 3122.619873,824.722412 
	C3123.322998,809.163025 3111.670654,800.694214 3100.735840,798.001038 
	C3086.148926,794.408325 3072.464111,797.025513 3059.328369,803.639587 
	C3057.096680,804.763184 3055.147705,806.447876 3052.625732,808.176636 
	C3055.497559,812.582703 3057.942383,816.333435 3060.049072,819.565369 
	C3066.308838,816.871094 3071.469971,814.649597 3078.288330,812.081238 
M2714.214355,1050.991943 
	C2726.145508,1008.824524 2692.038818,982.558350 2660.793213,989.574463 
	C2643.355225,993.490051 2631.378418,1003.615051 2626.426514,1020.515442 
	C2621.021240,1038.962158 2624.450439,1056.071167 2638.895264,1069.767578 
	C2659.810547,1089.599609 2701.255859,1085.796631 2714.214355,1050.991943 
M2698.329102,851.448425 
	C2698.349609,847.793701 2698.118164,844.117065 2698.433105,840.487915 
	C2699.835693,824.328735 2687.215820,805.563354 2669.657959,799.367310 
	C2648.700928,791.971619 2626.039795,800.664917 2616.597900,813.444214 
	C2607.719238,825.461792 2605.340820,838.391052 2607.656738,852.723145 
	C2610.392578,869.654175 2623.397461,883.894409 2640.001465,888.132751 
	C2666.889160,894.996216 2693.099365,880.348572 2698.329102,851.448425 
M3395.121826,796.286987 
	C3392.515137,796.729858 3389.920654,797.269775 3387.299805,797.600098 
	C3368.992188,799.907654 3354.361328,813.859009 3350.396484,833.318176 
	C3346.454590,852.661682 3354.979736,873.271057 3370.599609,883.000183 
	C3389.147705,894.553284 3415.760254,891.156799 3430.140381,875.401184 
	C3444.750000,859.394287 3446.043457,831.772278 3433.030029,814.458069 
	C3423.973145,802.407898 3411.421143,797.370300 3395.121826,796.286987 
M2719.607178,864.899536 
	C2719.607178,872.384338 2719.607178,879.869141 2719.607178,887.253296 
	C2725.587646,887.253296 2730.135742,887.253296 2735.714355,887.253296 
	C2735.714355,883.562683 2735.714600,880.326294 2735.714600,877.089844 
	C2735.714844,862.782837 2735.750244,848.475708 2735.700439,834.168884 
	C2735.674561,826.761169 2737.846436,820.353149 2744.218506,816.110107 
	C2751.049561,811.561035 2758.388184,810.806030 2765.971680,814.276306 
	C2773.903809,817.906006 2775.212646,825.392578 2775.454590,832.646240 
	C2775.953125,847.602112 2775.606201,862.586121 2775.607178,877.558594 
	C2775.607422,880.768677 2775.606934,883.978760 2775.606934,886.990112 
	C2781.559814,886.990112 2786.347168,886.990112 2791.705566,886.990112 
	C2791.705566,866.012268 2792.069336,845.746338 2791.459961,825.509766 
	C2791.299561,820.180847 2788.930664,814.478455 2786.193115,809.747681 
	C2777.114990,794.059143 2753.219727,791.804810 2739.397949,805.038696 
	C2738.535645,805.864319 2737.518799,806.528076 2736.233887,807.533081 
	C2735.836670,804.275757 2735.522217,801.699036 2735.159424,798.724548 
	C2729.991943,798.724548 2725.143311,798.724548 2719.607666,798.724548 
	C2719.607666,820.400940 2719.607666,841.663513 2719.607178,864.899536 
M3158.519531,798.289246 
	C3155.023193,798.289246 3151.526855,798.289246 3148.304932,798.289246 
	C3148.304932,828.880371 3148.304932,857.999939 3148.304932,887.204773 
	C3153.828857,887.204773 3158.656982,887.204773 3164.374268,887.204773 
	C3164.374268,883.458069 3164.374268,880.209717 3164.374512,876.961365 
	C3164.375732,861.989197 3164.075439,847.008911 3164.474121,832.047363 
	C3164.788086,820.264038 3173.234619,812.657471 3185.202393,812.374756 
	C3196.521729,812.107422 3202.926514,818.309692 3204.110107,830.827820 
	C3204.359619,833.468079 3204.283447,836.142944 3204.286377,838.802002 
	C3204.301758,852.443359 3204.257080,866.084839 3204.327148,879.725830 
	C3204.340088,882.258850 3204.782227,884.789612 3205.018799,887.239990 
	C3210.340820,887.239990 3214.881592,887.239990 3219.823975,887.239990 
	C3219.823975,865.249390 3221.503906,843.558777 3219.396240,822.242737 
	C3216.798828,795.979858 3188.406494,790.493286 3170.811768,802.683655 
	C3169.058838,803.898193 3167.468750,805.347534 3165.737061,806.740906 
	C3163.078857,803.755798 3166.515869,797.898987 3158.519531,798.289246 
M2746.865967,1034.204102 
	C2751.402588,1036.231445 2755.995850,1038.143066 2760.460205,1040.318726 
	C2764.920166,1042.492432 2769.572754,1044.489624 2773.544189,1047.383057 
	C2777.139160,1050.002319 2779.078857,1054.033447 2777.554688,1058.828125 
	C2776.061523,1063.525879 2772.535645,1065.623413 2767.877930,1066.165039 
	C2760.530762,1067.019531 2754.081543,1065.047607 2748.626953,1059.986084 
	C2745.786621,1057.350342 2742.938965,1054.722412 2739.876221,1051.888794 
	C2736.047119,1054.313965 2732.199951,1056.750488 2728.489990,1059.100098 
	C2736.701904,1080.453369 2764.160889,1086.848755 2781.704102,1077.536499 
	C2797.874512,1068.952881 2799.254639,1041.848022 2783.947266,1034.384277 
	C2778.295166,1031.628540 2772.697266,1028.756714 2767.131592,1025.829468 
	C2762.172119,1023.221069 2756.992188,1020.871216 2752.514160,1017.583435 
	C2750.554443,1016.144592 2748.930664,1012.506836 2749.229492,1010.128479 
	C2749.715332,1006.267151 2753.077393,1004.184753 2757.158447,1003.796814 
	C2762.978027,1003.243591 2768.431396,1004.121826 2773.195068,1007.751099 
	C2776.034912,1009.914673 2778.816162,1012.155640 2782.067139,1014.710449 
	C2786.254883,1011.864563 2790.188477,1009.191528 2794.091553,1006.539185 
	C2782.833252,989.757751 2762.874512,983.927979 2746.175781,991.655884 
	C2736.695312,996.043274 2731.555664,1004.062012 2732.323242,1013.764526 
	C2733.034912,1022.760986 2737.910400,1029.144287 2746.865967,1034.204102 
M3546.077148,1081.564697 
	C3552.645508,1080.947632 3559.516602,1081.343506 3565.715088,1079.489990 
	C3576.630615,1076.226318 3582.439209,1067.694336 3583.577637,1056.578491 
	C3584.672119,1045.888916 3579.641602,1037.946167 3570.316895,1032.901733 
	C3565.065918,1030.061035 3559.485352,1027.836792 3554.143555,1025.154419 
	C3549.694336,1022.920288 3544.897949,1020.984741 3541.190186,1017.820984 
	C3539.129639,1016.062378 3537.835693,1011.844971 3538.345215,1009.140503 
	C3538.736328,1007.064636 3542.281006,1004.614075 3544.786865,1004.099304 
	C3550.740234,1002.876282 3556.746338,1003.534241 3561.839111,1007.526306 
	C3564.671875,1009.747009 3567.434570,1012.057434 3570.787109,1014.781128 
	C3574.813965,1011.986938 3578.745850,1009.258728 3582.615234,1006.573730 
	C3573.750000,992.066650 3558.922607,986.177551 3541.729492,989.625183 
	C3531.049561,991.766846 3523.245605,998.499084 3521.865967,1006.761414 
	C3519.835205,1018.922974 3523.683105,1027.483154 3534.557617,1033.470215 
	C3540.357422,1036.663330 3546.630615,1038.986450 3552.614990,1041.858154 
	C3555.895996,1043.432495 3559.194580,1045.080688 3562.174316,1047.144531 
	C3566.191406,1049.927124 3567.175781,1054.314087 3566.058838,1058.715088 
	C3564.895752,1063.299316 3561.329590,1065.820557 3556.568359,1066.205078 
	C3549.346924,1066.787842 3542.549316,1065.739746 3537.405029,1059.989746 
	C3534.774170,1057.048828 3532.406738,1053.872192 3529.941895,1050.828613 
	C3524.733643,1054.299072 3520.948730,1056.821045 3516.771484,1059.604614 
	C3523.087402,1071.298218 3532.091064,1078.331055 3546.077148,1081.564697 
M2932.291992,823.781555 
	C2937.572998,816.674988 2944.674561,812.879578 2953.475098,812.406494 
	C2966.308105,811.716370 2977.007812,816.376038 2986.386475,827.339172 
	C2986.386475,821.705505 2986.075195,817.732910 2986.461670,813.829407 
	C2986.998779,808.407288 2984.668945,805.087891 2980.062744,802.651123 
	C2971.949219,798.358948 2963.225830,795.781677 2954.221680,796.442139 
	C2920.771729,798.895996 2906.449951,824.440308 2910.029541,850.895386 
	C2914.629883,884.898438 2953.159180,900.269226 2982.173340,882.284851 
	C2984.093018,881.095032 2985.933594,878.367432 2986.181152,876.171326 
	C2986.766602,870.981934 2986.368896,865.681641 2986.368896,860.426208 
	C2985.720459,860.113281 2985.072266,859.800293 2984.423828,859.487366 
	C2982.566895,861.807617 2981.076660,864.600586 2978.794189,866.372742 
	C2961.902832,879.486389 2935.349854,877.109802 2927.647949,852.807373 
	C2924.593994,843.170288 2925.949951,833.774780 2932.291992,823.781555 
M2588.154785,824.597961 
	C2588.992920,825.354858 2589.831055,826.111755 2591.720947,827.818542 
	C2591.720947,822.626160 2591.358887,818.979675 2591.799072,815.432800 
	C2592.625000,808.775391 2589.621338,804.947693 2583.913086,802.040161 
	C2555.551025,787.594055 2519.895020,802.272156 2514.649658,835.081543 
	C2511.654785,853.815063 2520.378174,874.359009 2535.866699,883.291748 
	C2553.938965,893.714661 2576.255371,891.755554 2591.632080,878.209534 
	C2591.512695,872.373230 2592.249756,866.284973 2591.038818,858.900635 
	C2582.182129,869.206848 2572.482178,874.260071 2560.464600,874.254761 
	C2544.830322,874.247742 2531.182617,862.111694 2530.627686,843.114014 
	C2530.117920,825.670837 2543.643066,812.586060 2560.568604,812.377930 
	C2571.115234,812.248352 2579.994141,815.993164 2588.154785,824.597961 
M3034.231201,1079.707642 
	C3041.366943,1079.339722 3038.218994,1073.771362 3038.234619,1070.667847 
	C3038.461182,1025.704590 3038.395264,980.739807 3038.372070,935.775452 
	C3038.371094,933.867249 3038.104248,931.959229 3037.968262,930.142395 
	C3032.469971,930.142395 3027.590576,930.142395 3022.948730,930.142395 
	C3022.948730,980.163452 3022.948730,1029.648560 3022.948730,1079.714966 
	C3026.568359,1079.714966 3029.530518,1079.714966 3034.231201,1079.707642 
M3026.399414,781.503662 
	C3026.399414,777.278320 3026.399414,773.053040 3026.399414,768.957520 
	C3020.540771,768.957520 3015.737305,768.957520 3009.983887,768.957520 
	C3009.983887,779.094604 3009.983887,788.572144 3009.983887,797.962341 
	C3005.087891,798.224915 3001.178467,798.434570 2996.798584,798.669434 
	C2996.798584,804.038879 2996.798584,808.856384 2996.798584,813.925232 
	C3001.282715,814.272522 3005.498047,814.598938 3010.522949,814.988098 
	C3010.522949,839.264526 3010.522949,863.073547 3010.522949,887.218994 
	C3016.173584,887.218994 3020.964355,887.218994 3026.656738,887.218994 
	C3026.656738,862.919983 3026.656738,839.112366 3026.656738,814.982910 
	C3032.043945,814.573486 3036.568359,814.229675 3041.100342,813.885254 
	C3041.100342,808.672974 3041.100342,803.859192 3041.100342,798.664307 
	C3035.972900,798.356140 3031.432617,798.083252 3026.399414,797.780701 
	C3026.399414,792.621216 3026.399414,788.008545 3026.399414,781.503662 
M2833.753174,1060.887085 
	C2833.753174,1049.260010 2833.809570,1037.632446 2833.737549,1026.005859 
	C2833.664307,1014.205811 2834.055664,1002.379883 2833.515137,991.017029 
	C2827.009521,991.017029 2821.879883,991.017029 2816.876953,991.017029 
	C2816.876953,1020.872131 2816.876953,1049.948120 2816.876953,1079.162354 
	C2822.648438,1079.162354 2827.779297,1079.162354 2833.753174,1079.162354 
	C2833.753174,1073.345947 2833.753174,1068.095947 2833.753174,1060.887085 
M3082.533203,990.329224 
	C3078.382324,990.329224 3074.231445,990.329224 3069.975098,990.329224 
	C3069.975098,1020.713745 3069.975098,1049.848267 3069.975098,1079.189209 
	C3075.172363,1079.189209 3079.987549,1079.189209 3085.310791,1079.189209 
	C3085.471680,1077.111572 3085.701660,1075.515259 3085.703125,1073.918579 
	C3085.726074,1048.369995 3085.754883,1022.821228 3085.658203,997.272888 
	C3085.650146,995.090759 3084.761719,992.911926 3082.533203,990.329224 
M2975.600586,1052.954102 
	C2975.600586,1061.760620 2975.600586,1070.567139 2975.600586,1079.228516 
	C2981.654297,1079.228516 2986.197266,1079.228516 2991.223145,1079.228516 
	C2991.223145,1049.591675 2991.223145,1020.451843 2991.223145,990.792969 
	C2985.953125,990.792969 2981.135254,990.792969 2975.600830,990.792969 
	C2975.600830,1011.061890 2975.600830,1031.014404 2975.600586,1052.954102 
M2986.272705,965.683777 
	C2988.032959,964.803284 2990.068604,964.237305 2991.501465,962.982788 
	C2995.630371,959.367981 2994.970459,954.506409 2993.701416,950.043884 
	C2992.476318,945.735535 2987.227783,943.159485 2982.428955,943.680359 
	C2977.736328,944.189758 2973.856201,947.638733 2972.645020,952.377686 
	C2970.963379,958.957214 2975.600342,964.069214 2986.272705,965.683777 
M3085.848389,947.276794 
	C3082.904053,946.062805 3080.003418,943.970032 3077.006104,943.821228 
	C3071.115234,943.528992 3066.436768,948.768127 3066.301758,954.660522 
	C3066.177002,960.095642 3071.200684,965.288818 3076.995361,965.714966 
	C3083.259033,966.175598 3087.920410,962.365662 3088.273438,955.916504 
	C3088.409912,953.421082 3087.316406,950.858337 3085.848389,947.276794 
M2831.560059,945.838318 
	C2829.726807,945.130127 2827.943848,944.038818 2826.050049,943.789429 
	C2821.376953,943.173767 2817.598389,944.830566 2815.247559,949.136475 
	C2812.952393,953.340210 2813.167236,957.333679 2816.000000,961.274963 
	C2818.891602,965.298645 2822.882568,966.383972 2827.422119,965.570068 
	C2835.710205,964.083984 2837.899658,956.178894 2831.560059,945.838318 
z"/>
<path fill="#023532" opacity="1.000000" stroke="none" 
	d="
M1520.322632,1017.999878 
	C1520.322632,966.336426 1520.329102,915.672913 1520.317993,865.009460 
	C1520.315186,852.248901 1518.115356,839.855652 1513.155151,828.101562 
	C1507.081177,813.708130 1496.593994,803.633667 1481.049805,800.955017 
	C1455.409302,796.536560 1431.896362,800.584167 1414.405029,822.229065 
	C1406.722046,831.736389 1402.362305,842.937866 1400.456299,854.871460 
	C1399.101440,863.354553 1398.455688,872.037048 1398.433228,880.633057 
	C1398.269775,942.962036 1398.345337,1005.291687 1398.345337,1067.621094 
	C1398.345337,1071.244629 1398.345337,1074.868164 1398.345337,1079.085449 
	C1371.577271,1079.085449 1345.463745,1079.085449 1318.322632,1079.085449 
	C1318.322632,1075.128174 1318.322754,1071.553101 1318.322754,1067.978027 
	C1318.322754,1000.982239 1318.299561,933.986511 1318.343018,866.990723 
	C1318.351196,854.239258 1316.488892,841.825134 1311.854980,829.944702 
	C1304.315186,810.613953 1288.732666,800.280823 1268.084961,799.578552 
	C1252.709106,799.055542 1238.211914,801.268433 1225.291382,810.057617 
	C1209.440430,820.840210 1201.772583,836.793823 1198.465698,854.968872 
	C1196.931152,863.402039 1196.455322,872.126038 1196.432861,880.720581 
	C1196.269897,943.049561 1196.345337,1005.379211 1196.345337,1067.708618 
	C1196.345337,1071.321411 1196.345337,1074.934326 1196.345337,1079.112549 
	C1170.421021,1079.112549 1145.211304,1079.112549 1119.936279,1079.112549 
	C1117.787598,1072.155762 1116.813965,767.383118 1118.984863,742.360962 
	C1144.346191,742.360962 1169.782715,742.360962 1196.346191,742.360962 
	C1196.346191,756.644775 1196.346191,771.020020 1196.346191,787.815674 
	C1199.146240,784.376587 1200.431396,783.055664 1201.423096,781.542480 
	C1222.974243,748.657776 1253.862915,733.916321 1292.668701,734.279968 
	C1306.041260,734.405273 1319.163452,736.046326 1331.892456,740.096680 
	C1356.665649,747.979614 1374.694458,763.685974 1385.739258,787.299438 
	C1386.415527,788.745178 1387.190430,790.144836 1388.082153,791.883423 
	C1394.588745,784.175903 1400.470581,776.717712 1406.865356,769.729004 
	C1423.157227,751.924255 1443.664673,741.483521 1467.107056,736.828613 
	C1489.276855,732.426575 1511.348511,733.307007 1533.062988,739.854187 
	C1558.579346,747.547546 1576.040527,764.578247 1587.140137,788.193054 
	C1594.963257,804.836975 1599.475952,822.561523 1600.312988,841.040039 
	C1600.929199,854.641663 1601.586670,868.256531 1601.616943,881.866882 
	C1601.754883,943.862671 1601.677368,1005.859009 1601.677368,1067.855103 
	C1601.677368,1071.446289 1601.677368,1075.037598 1601.677368,1079.135742 
	C1574.280518,1079.135742 1547.820923,1079.135742 1520.322632,1079.135742 
	C1520.322632,1058.803711 1520.322632,1038.901855 1520.322632,1017.999878 
z"/>
<path fill="#023532" opacity="1.000000" stroke="none" 
	d="
M1887.143311,833.085205 
	C1907.884155,780.207397 1946.626953,749.359070 2000.177979,736.135803 
	C2017.937622,731.750427 2036.207764,729.833435 2054.467285,730.471252 
	C2083.136475,731.472778 2111.182617,735.651306 2137.368164,748.785706 
	C2171.853516,766.083008 2194.955322,793.060425 2207.851807,829.104004 
	C2213.924316,846.075806 2217.153809,863.583130 2218.521240,881.602539 
	C2219.627441,896.178162 2220.635254,910.602295 2217.776611,925.637939 
	C2130.836670,925.637939 2044.260376,925.637939 1956.496338,925.637939 
	C1960.839844,963.290161 1972.372437,996.481812 2008.485229,1013.010498 
	C2042.079102,1028.386353 2075.732910,1026.586792 2105.767822,1002.146301 
	C2114.686768,994.888489 2120.627441,985.234802 2125.552979,974.968018 
	C2126.829102,972.308105 2127.829834,969.516174 2129.026611,966.615967 
	C2157.203613,966.615967 2185.147217,966.615967 2214.432373,966.615967 
	C2213.295898,971.045166 2212.610840,975.148682 2211.202637,978.987061 
	C2190.277832,1036.030273 2150.381592,1070.487061 2089.939209,1079.993774 
	C2077.858398,1081.894043 2065.552979,1083.658813 2053.382812,1083.468262 
	C2009.314575,1082.778564 1967.755615,1073.830933 1932.746460,1044.463379 
	C1907.978394,1023.686401 1891.337158,997.503296 1882.612549,966.863708 
	C1869.922974,922.299805 1871.015869,877.691406 1887.143311,833.085205 
M1968.722656,839.957764 
	C1964.723389,849.275208 1960.623657,858.564758 1959.655640,868.985474 
	C2017.705322,868.985474 2074.724365,868.985474 2132.280518,868.985474 
	C2129.276123,841.452271 2118.465088,819.456238 2095.321533,804.275513 
	C2061.750977,782.255188 1994.795898,785.863037 1968.722656,839.957764 
z"/>
<path fill="#023532" opacity="1.000000" stroke="none" 
	d="
M726.283081,802.317688 
	C753.165466,762.958374 790.384399,741.445374 836.131653,733.764099 
	C869.992798,728.078674 903.680847,729.197388 936.555054,739.189880 
	C988.894714,755.098999 1021.579224,790.456543 1035.820312,843.013489 
	C1039.819702,857.773010 1042.533325,872.790039 1042.372192,888.207764 
	C1042.244995,900.370239 1042.346558,912.535034 1042.346558,925.647217 
	C954.772949,925.647217 867.942322,925.647217 780.478455,925.647217 
	C781.062012,940.988586 784.777710,954.540222 790.148560,967.740784 
	C813.772705,1025.805176 878.875977,1031.953003 915.262573,1012.078735 
	C931.378784,1003.276062 942.466431,989.987061 949.931458,973.442749 
	C950.882751,971.334473 951.686340,969.159485 952.682129,966.710876 
	C980.985779,966.710876 1009.199463,966.710876 1037.807983,966.710876 
	C1035.657837,981.396790 1029.361328,994.219971 1022.305054,1006.579773 
	C997.863647,1049.390625 960.447144,1073.166382 912.097717,1080.232300 
	C900.645142,1081.906128 889.032776,1083.605713 877.511658,1083.492065 
	C833.719543,1083.060669 792.287231,1074.082153 757.460938,1045.477417 
	C732.062622,1024.616333 714.867615,997.774597 706.174011,966.252197 
	C693.082947,918.785217 694.734619,871.662720 713.761475,825.789368 
	C717.052795,817.854065 721.801819,810.523438 726.283081,802.317688 
M813.011108,869.674866 
	C859.950378,869.558228 906.889709,869.442444 953.828918,869.304077 
	C954.116333,869.303223 954.434509,869.023010 954.680481,868.807251 
	C954.908813,868.606995 955.059631,868.318237 955.256897,868.070801 
	C955.381592,867.422424 955.674561,866.755859 955.606934,866.128235 
	C951.248657,825.677185 922.987183,794.720337 880.356323,791.983704 
	C835.908875,789.130493 800.729614,810.840759 787.005676,853.634827 
	C785.415283,858.593994 784.315552,863.710510 782.746094,869.674805 
	C793.090332,869.674805 802.054443,869.674805 813.011108,869.674866 
z"/>
<path fill="#023431" opacity="1.000000" stroke="none" 
	d="
M607.979126,608.341309 
	C591.012024,608.341309 575.042114,608.341309 558.016357,608.341309 
	C558.016357,565.900879 558.016357,523.798584 558.016357,481.024658 
	C532.211670,481.024658 507.456207,481.024658 481.945312,481.024658 
	C481.945312,523.082947 481.945312,564.931274 481.945312,607.557617 
	C456.440704,607.557617 431.685974,607.557617 405.873566,607.557617 
	C405.873566,565.755554 405.873566,523.653442 405.873566,480.953217 
	C380.328156,480.953217 355.827148,480.953217 329.831726,480.953217 
	C329.498932,491.144531 329.719849,501.644531 329.681824,512.127563 
	C329.643127,522.789795 329.673248,533.452332 329.673248,544.114746 
	C329.673248,554.443970 329.673248,564.773193 329.673248,575.102417 
	C329.673248,585.716187 329.673279,596.329895 329.673279,607.636963 
	C303.943298,607.636963 278.799347,607.636963 252.988129,607.636963 
	C252.988129,540.106018 252.988129,472.361694 252.988129,403.468506 
	C379.675659,403.468506 506.069916,403.468506 633.071167,403.468506 
	C633.071167,471.232361 633.071167,539.318115 633.071167,608.341309 
	C624.810425,608.341309 616.893372,608.341309 607.979126,608.341309 
z"/>
<path fill="#013330" opacity="1.000000" stroke="none" 
	d="
M2374.335449,1004.000122 
	C2374.335449,1029.572388 2374.335449,1054.144653 2374.335449,1079.188965 
	C2347.235107,1079.188965 2321.072510,1079.188965 2294.286133,1079.188965 
	C2294.286133,916.498535 2294.286133,754.051941 2294.286133,590.965820 
	C2320.363770,590.965820 2346.529541,590.965820 2372.977539,590.965820 
	C2372.961426,590.953125 2373.256348,591.129761 2373.475342,591.374268 
	C2373.681152,591.604248 2373.948730,591.905457 2373.948975,592.175476 
	C2374.091553,729.117004 2374.213379,866.058533 2374.335449,1004.000122 
z"/>
<path fill="#043633" opacity="1.000000" stroke="none" 
	d="
M1775.934570,789.896973 
	C1775.850952,793.555115 1775.694824,797.213196 1775.694336,800.871338 
	C1775.680664,890.436829 1775.683716,980.002258 1775.683716,1069.567749 
	C1775.683716,1073.173340 1775.683594,1076.778931 1775.683594,1081.033691 
	C1744.528931,1081.033691 1714.090454,1081.033691 1682.981934,1081.033691 
	C1682.981934,983.936707 1682.981934,886.884949 1682.981934,788.399292 
	C1712.612427,788.361328 1742.418335,788.323120 1773.419434,788.526428 
	C1774.997070,789.211487 1775.437012,789.587830 1775.934570,789.896973 
z"/>
<path fill="#023431" opacity="1.000000" stroke="none" 
	d="
M479.895264,754.531372 
	C426.971558,754.468018 374.047699,754.459167 321.124207,754.314270 
	C300.169586,754.256897 279.215668,753.904358 258.261719,753.660950 
	C256.658386,753.642334 255.057404,753.421509 252.913147,753.251709 
	C252.913147,728.075806 252.913147,703.328125 252.913147,678.118347 
	C329.062286,678.118347 404.810211,678.118347 481.709717,678.118347 
	C481.709717,702.926208 481.709717,727.452271 481.204773,752.921387 
	C480.431610,754.086792 480.163422,754.309082 479.895264,754.531372 
z"/>
<path fill="#77E2D1" opacity="1.000000" stroke="none" 
	d="
M1776.875610,789.867859 
	C1775.437012,789.587830 1774.997070,789.211487 1774.357422,788.416626 
	C1774.065674,756.166382 1774.030884,724.267395 1774.375000,691.140991 
	C1775.095947,689.895386 1775.437988,689.877319 1775.780151,689.859253 
	C1805.991455,689.859253 1836.202637,689.859253 1867.114258,689.859253 
	C1867.114258,723.210266 1867.114258,755.656494 1867.114258,789.346191 
	C1857.424438,790.381531 1847.540039,789.671448 1837.714966,789.797302 
	C1827.733398,789.925232 1817.749146,789.823853 1807.765991,789.826050 
	C1797.782837,789.828247 1787.799805,789.834351 1776.875610,789.867859 
z"/>
<path fill="#043633" opacity="1.000000" stroke="none" 
	d="
M1775.757446,688.934875 
	C1775.437988,689.877319 1775.095947,689.895386 1774.357422,690.238770 
	C1743.747559,690.564148 1713.533936,690.564148 1682.821411,690.564148 
	C1682.821411,657.623840 1682.821411,625.778442 1682.821411,593.903137 
	C1689.954712,591.796875 1746.658936,591.027649 1775.506836,592.781433 
	C1775.934448,624.440918 1775.522217,656.231262 1775.757446,688.934875 
z"/>
<path fill="#7BE0D0" opacity="1.000000" stroke="none" 
	d="
M479.923248,755.433960 
	C480.163422,754.309082 480.431610,754.086792 481.222534,753.847900 
	C506.462982,753.782898 531.180664,753.734375 556.965393,753.826660 
	C558.032410,753.967590 558.077820,754.272522 558.077820,754.272522 
	C558.077820,779.117126 558.077820,803.961670 558.077820,829.509766 
	C532.124756,829.509766 507.027374,829.509766 480.691162,829.509766 
	C479.356537,805.205933 480.742615,780.741943 479.923248,755.433960 
z"/>
<path fill="#083936" opacity="1.000000" stroke="none" 
	d="
M3143.638184,1080.759644 
	C3118.019775,1076.029907 3106.099854,1051.467407 3108.725830,1029.402710 
	C3110.830078,1011.721375 3119.038818,998.037109 3136.635986,991.460144 
	C3153.503174,985.155945 3168.344971,988.327637 3182.153320,1002.249268 
	C3182.153320,977.345154 3182.153320,953.922852 3182.153320,930.065430 
	C3187.866699,930.065430 3192.721924,930.065430 3197.985352,930.065430 
	C3197.985352,979.874390 3197.985352,1029.384644 3197.985352,1079.303467 
	C3193.112305,1079.303467 3188.534424,1079.303467 3183.205322,1079.303467 
	C3182.723389,1076.317383 3182.220703,1073.202026 3181.515869,1068.834839 
	C3170.977051,1079.495361 3158.750977,1083.865601 3143.638184,1080.759644 
M3125.713379,1029.822144 
	C3125.737793,1033.481079 3125.465576,1037.170410 3125.837158,1040.793823 
	C3127.601318,1057.986938 3146.560303,1070.602173 3162.232910,1064.922852 
	C3173.928711,1060.685059 3180.594727,1052.124146 3182.038574,1039.775146 
	C3183.540527,1026.933350 3179.961914,1015.882019 3168.736084,1008.657410 
	C3165.027832,1006.270813 3160.183838,1004.794556 3155.761230,1004.527344 
	C3140.533203,1003.607483 3130.840332,1011.586182 3125.713379,1029.822144 
z"/>
<path fill="#093A37" opacity="1.000000" stroke="none" 
	d="
M2882.536133,1071.321167 
	C2875.428467,1071.000732 2880.299561,1077.023926 2876.829346,1079.412964 
	C2872.907959,1079.412964 2868.297119,1079.412964 2862.986328,1079.412964 
	C2862.986328,1029.780884 2862.986328,980.327087 2862.986328,930.239136 
	C2867.499756,930.239136 2872.362549,930.239136 2878.197998,930.239136 
	C2878.197998,953.383484 2878.197998,976.874817 2878.197998,1001.268860 
	C2880.469971,1000.456116 2881.989746,1000.392151 2882.650635,999.606018 
	C2900.288086,978.627502 2942.935547,987.472046 2950.976074,1020.731506 
	C2954.570557,1035.600342 2953.687988,1050.569702 2944.593018,1063.820923 
	C2931.117676,1083.455078 2900.496826,1088.362305 2882.536133,1071.321167 
M2879.664795,1031.618774 
	C2879.907715,1036.198120 2879.465820,1040.941406 2880.516846,1045.327026 
	C2884.264404,1060.963013 2901.238525,1069.848389 2916.461670,1064.573975 
	C2927.634521,1060.702881 2933.841553,1052.679810 2935.624268,1041.216431 
	C2937.476562,1029.307007 2935.009521,1018.570068 2925.237305,1010.706055 
	C2905.178223,994.563904 2880.469971,1010.603943 2879.664795,1031.618774 
z"/>
<path fill="#023431" opacity="1.000000" stroke="none" 
	d="
M557.879944,753.944885 
	C557.727478,728.966248 557.727478,704.010315 557.727478,678.357300 
	C582.814026,678.357300 607.604919,678.357300 633.037598,678.357300 
	C633.037598,703.029724 633.037598,727.856567 633.037598,753.880798 
	C621.216675,754.854431 609.038635,754.197571 596.903320,754.316101 
	C584.579468,754.436523 572.253723,754.354004 559.003296,754.316406 
	C558.077820,754.272522 558.032410,753.967590 557.879944,753.944885 
z"/>
<path fill="#093A37" opacity="1.000000" stroke="none" 
	d="
M3399.712158,1010.000122 
	C3399.712158,1033.578613 3399.712158,1056.156982 3399.712158,1079.218994 
	C3394.194092,1079.218994 3389.640137,1079.218994 3384.438721,1079.218994 
	C3383.984619,1076.368408 3383.490967,1073.271606 3382.721680,1068.442993 
	C3372.371582,1079.753662 3360.194824,1083.667358 3346.426758,1081.260864 
	C3336.047852,1079.446655 3326.895996,1074.854370 3320.061768,1066.408081 
	C3305.755371,1048.727417 3306.384766,1018.628113 3321.714600,1001.861938 
	C3329.759277,993.063782 3340.499512,989.317322 3351.983887,988.437927 
	C3363.742676,987.537598 3373.728760,992.620300 3383.431641,1001.769165 
	C3383.431641,976.859436 3383.431641,953.707581 3383.431641,930.088989 
	C3389.072998,930.088989 3393.911133,930.088989 3399.712158,930.088989 
	C3399.712158,956.582336 3399.712158,982.791199 3399.712158,1010.000122 
M3351.810547,1065.860352 
	C3368.672363,1069.714233 3388.204590,1050.882935 3382.829590,1028.019531 
	C3379.294922,1012.984680 3369.125000,1004.265991 3355.200928,1004.351379 
	C3340.803223,1004.439758 3330.915771,1012.724426 3327.292969,1027.734375 
	C3323.084961,1045.170166 3331.809082,1059.626343 3351.810547,1065.860352 
z"/>
<path fill="#083936" opacity="1.000000" stroke="none" 
	d="
M3241.040039,850.715820 
	C3239.323486,839.062561 3241.333984,828.853027 3246.122070,819.043518 
	C3257.390625,795.957397 3294.081055,787.528503 3311.796387,808.549805 
	C3312.108643,808.920410 3312.802002,808.970032 3314.293457,809.546570 
	C3314.293457,797.362671 3314.293457,785.537292 3314.293457,773.711914 
	C3314.293457,762.114929 3314.293457,750.517944 3314.293457,738.280273 
	C3319.728516,738.280273 3324.502441,738.280273 3329.840576,738.280273 
	C3329.840576,787.713989 3329.840576,837.144470 3329.840576,887.143921 
	C3324.817139,887.143921 3320.023193,887.143921 3314.774414,887.143921 
	C3314.482422,883.606384 3314.216553,880.383728 3313.851074,875.955200 
	C3300.417236,890.850891 3284.547119,893.281982 3267.407715,886.290283 
	C3252.089600,880.041626 3243.132080,868.285339 3241.040039,850.715820 
M3290.107666,874.028381 
	C3314.002441,869.009094 3318.880371,843.631165 3310.608643,827.731628 
	C3301.921387,811.033386 3280.588867,807.053162 3266.776855,819.827148 
	C3256.115967,829.687195 3255.629395,842.060791 3259.405029,854.764526 
	C3263.296143,867.856689 3272.226318,873.383789 3290.107666,874.028381 
z"/>
<path fill="#093B38" opacity="1.000000" stroke="none" 
	d="
M2559.706055,1080.789185 
	C2552.548828,1077.296631 2546.160400,1074.132812 2538.820312,1070.497681 
	C2537.753906,1078.087036 2538.574219,1086.456177 2538.427002,1094.736938 
	C2538.273438,1103.364502 2538.392822,1111.996704 2538.392822,1121.168091 
	C2533.003418,1121.168091 2528.215576,1121.168091 2522.853027,1121.168091 
	C2522.853027,1077.781616 2522.853027,1034.663208 2522.853027,990.805481 
	C2525.537354,990.624146 2528.077637,990.392578 2530.623047,990.298340 
	C2532.903564,990.213928 2535.189697,990.280701 2537.624023,990.280701 
	C2538.209473,994.006287 2538.703857,997.151123 2539.261230,1000.697388 
	C2540.706787,999.862488 2541.668213,999.517151 2542.356934,998.877930 
	C2554.642822,987.477844 2568.904785,985.874390 2584.010498,991.343811 
	C2600.175293,997.196716 2609.291748,1009.549927 2611.535400,1026.255737 
	C2614.058838,1045.047852 2610.258057,1062.131348 2593.633057,1073.887573 
	C2583.702881,1080.909424 2572.492432,1083.132446 2559.706055,1080.789185 
M2538.517334,1030.081177 
	C2538.468994,1033.066040 2537.987305,1036.119629 2538.447754,1039.023804 
	C2540.329834,1050.888062 2545.889160,1060.153931 2557.735352,1064.540771 
	C2568.112305,1068.383423 2577.436035,1065.777222 2585.442871,1058.911255 
	C2596.657227,1049.294434 2598.917480,1031.252197 2591.132812,1017.967163 
	C2580.306885,999.492249 2553.175049,999.628784 2542.730713,1018.325806 
	C2540.986816,1021.447205 2540.196045,1025.101074 2538.517334,1030.081177 
z"/>
<path fill="#093A37" opacity="1.000000" stroke="none" 
	d="
M3419.610840,1035.901245 
	C3419.977295,1030.076050 3419.618408,1024.938965 3420.826416,1020.201538 
	C3429.411377,986.540466 3468.391846,981.083740 3489.660645,996.657288 
	C3492.803223,998.958374 3495.529785,1002.123169 3497.715088,1005.380554 
	C3503.988037,1014.731079 3506.374023,1026.621948 3504.783203,1039.715820 
	C3493.744141,1039.715820 3482.537842,1039.715942 3471.331299,1039.715942 
	C3460.030762,1039.715942 3448.730225,1039.715820 3437.462891,1039.715820 
	C3436.786865,1051.406372 3442.229980,1060.124634 3452.385498,1064.151245 
	C3466.087646,1069.584106 3478.827637,1065.165527 3490.996826,1050.322876 
	C3495.008057,1052.795898 3499.116699,1055.328857 3503.169678,1057.827515 
	C3495.312012,1075.620361 3474.116943,1085.184692 3452.992432,1080.844604 
	C3431.443359,1076.417358 3419.736328,1060.961792 3419.610840,1035.901245 
M3457.827148,1003.678162 
	C3443.921387,1007.389709 3438.077637,1013.899048 3438.378418,1025.296265 
	C3454.504639,1025.296265 3470.626709,1025.296265 3486.796387,1025.296265 
	C3484.572266,1009.091919 3477.630615,1003.668884 3457.827148,1003.678162 
z"/>
<path fill="#093A37" opacity="1.000000" stroke="none" 
	d="
M2896.110840,825.928467 
	C2897.161377,833.184265 2898.024170,839.665161 2899.033447,847.247803 
	C2875.248291,847.247803 2852.792725,847.247803 2830.395020,847.247803 
	C2829.799072,860.015320 2835.202393,868.439880 2846.032715,872.655884 
	C2858.854736,877.647400 2871.647705,872.949280 2883.963135,858.133789 
	C2888.107910,860.855774 2892.366211,863.652405 2896.557861,866.405334 
	C2882.557129,893.382019 2845.123779,894.519714 2829.409424,882.288879 
	C2817.062988,872.679504 2812.021973,859.764343 2811.791016,844.940308 
	C2811.499268,826.234680 2817.203125,809.953735 2835.343018,801.144653 
	C2855.078613,791.560669 2880.131104,797.033508 2890.043701,812.604797 
	C2892.503906,816.469238 2893.989502,820.953979 2896.110840,825.928467 
M2855.091309,811.653076 
	C2839.934570,812.434814 2831.268555,820.172485 2830.855713,833.253174 
	C2847.047363,833.253174 2863.236572,833.253174 2879.464111,833.253174 
	C2877.918213,819.014709 2871.325195,812.842041 2855.091309,811.653076 
z"/>
<path fill="#093B38" opacity="1.000000" stroke="none" 
	d="
M3280.773438,1079.705688 
	C3276.599609,1077.063110 3276.516357,1076.933960 3275.178711,1071.918213 
	C3266.333984,1078.522461 3256.675049,1082.360718 3245.598877,1081.728394 
	C3231.095947,1080.900391 3219.542969,1071.748169 3217.330078,1058.411255 
	C3214.598633,1041.949219 3223.844482,1029.712158 3235.638184,1026.194092 
	C3246.347412,1022.999573 3257.176025,1022.706238 3267.974854,1026.035767 
	C3270.437744,1026.795166 3272.929932,1027.460083 3275.486572,1028.190674 
	C3277.784424,1008.561218 3273.142334,1002.794312 3254.346680,1003.985657 
	C3246.366455,1004.491455 3238.571045,1007.912231 3229.480225,1010.330444 
	C3229.197754,1009.989258 3227.657227,1008.324402 3226.349121,1006.493835 
	C3225.030029,1004.648010 3223.941162,1002.637817 3222.789307,1000.761597 
	C3234.014404,988.636475 3262.828369,984.272339 3278.733643,993.055664 
	C3287.559326,997.929321 3292.702148,1004.665833 3292.496094,1015.378113 
	C3292.131104,1034.352417 3292.411133,1053.338623 3292.371338,1072.319946 
	C3292.366455,1074.584839 3292.050537,1076.849365 3291.833252,1079.716431 
	C3288.190186,1079.716431 3284.893799,1079.716431 3280.773438,1079.705688 
M3244.513672,1038.299316 
	C3232.341553,1044.230469 3229.781982,1056.974365 3239.601562,1063.757446 
	C3251.956787,1072.292236 3272.720215,1065.996216 3276.143555,1048.417480 
	C3277.007324,1043.981689 3276.081055,1040.229614 3270.781006,1039.725586 
	C3262.603516,1038.947632 3254.394043,1038.505859 3244.513672,1038.299316 
z"/>
<path fill="#093A37" opacity="1.000000" stroke="none" 
	d="
M3077.459961,812.254639 
	C3071.469971,814.649597 3066.308838,816.871094 3060.049072,819.565369 
	C3057.942383,816.333435 3055.497559,812.582703 3052.625732,808.176636 
	C3055.147705,806.447876 3057.096680,804.763184 3059.328369,803.639587 
	C3072.464111,797.025513 3086.148926,794.408325 3100.735840,798.001038 
	C3111.670654,800.694214 3123.322998,809.163025 3122.619873,824.722412 
	C3121.689941,845.295715 3122.391113,865.942749 3122.391113,887.134888 
	C3117.033447,887.134888 3112.235107,887.134888 3107.084717,887.134888 
	C3106.603027,884.914978 3106.133301,882.748779 3105.611816,880.344604 
	C3104.643799,880.812866 3103.709473,881.105957 3102.959717,881.652161 
	C3094.865479,887.548706 3085.819336,890.149353 3075.837158,889.724670 
	C3060.072266,889.053955 3048.072266,878.383667 3047.609375,864.555786 
	C3046.960205,845.165894 3055.638672,834.370605 3073.679199,832.335632 
	C3084.351074,831.131897 3094.812012,832.198486 3104.598877,836.302368 
	C3105.338623,835.399963 3106.018066,834.959534 3106.047607,834.479065 
	C3107.220459,815.439331 3103.469482,811.526855 3084.259277,811.731445 
	C3082.267822,811.752625 3080.278564,811.960144 3077.459961,812.254639 
M3074.572021,846.282837 
	C3072.568848,847.405518 3070.336914,848.254211 3068.603027,849.699707 
	C3062.110352,855.112244 3061.821045,865.070190 3068.213379,870.585449 
	C3075.537354,876.904663 3084.063965,876.783813 3092.436279,873.293823 
	C3100.193848,870.060303 3105.378662,864.356934 3106.291016,855.460815 
	C3106.738525,851.097229 3105.327393,848.159119 3100.812744,847.729980 
	C3092.640381,846.953247 3084.437744,846.497925 3074.572021,846.282837 
z"/>
<path fill="#093A37" opacity="1.000000" stroke="none" 
	d="
M2714.015869,1051.744385 
	C2701.255859,1085.796631 2659.810547,1089.599609 2638.895264,1069.767578 
	C2624.450439,1056.071167 2621.021240,1038.962158 2626.426514,1020.515442 
	C2631.378418,1003.615051 2643.355225,993.490051 2660.793213,989.574463 
	C2692.038818,982.558350 2726.145508,1008.824524 2714.015869,1051.744385 
M2641.783447,1028.139526 
	C2641.594238,1030.116699 2641.305176,1032.089966 2641.231201,1034.071533 
	C2640.566650,1051.845093 2653.724365,1066.307861 2670.510742,1066.298218 
	C2686.703125,1066.288940 2700.251953,1052.051880 2700.270264,1035.026733 
	C2700.289551,1017.250122 2686.870361,1003.846497 2669.405762,1004.377747 
	C2654.777832,1004.822693 2646.497070,1013.316406 2641.783447,1028.139526 
z"/>
<path fill="#093A37" opacity="1.000000" stroke="none" 
	d="
M2698.244385,852.270264 
	C2693.099365,880.348572 2666.889160,894.996216 2640.001465,888.132751 
	C2623.397461,883.894409 2610.392578,869.654175 2607.656738,852.723145 
	C2605.340820,838.391052 2607.719238,825.461792 2616.597900,813.444214 
	C2626.039795,800.664917 2648.700928,791.971619 2669.657959,799.367310 
	C2687.215820,805.563354 2699.835693,824.328735 2698.433105,840.487915 
	C2698.118164,844.117065 2698.349609,847.793701 2698.244385,852.270264 
M2624.080078,836.157043 
	C2623.967529,839.809082 2623.492920,843.493164 2623.813477,847.106750 
	C2624.617920,856.171448 2628.587891,863.645325 2636.176025,868.898804 
	C2650.354248,878.715210 2668.889893,874.768677 2677.790771,860.118591 
	C2687.265381,844.523315 2681.588867,823.485046 2666.118164,815.265503 
	C2653.296875,808.453491 2630.361084,812.479736 2624.080078,836.157043 
z"/>
<path fill="#093A37" opacity="1.000000" stroke="none" 
	d="
M3395.995117,796.286987 
	C3411.421143,797.370300 3423.973145,802.407898 3433.030029,814.458069 
	C3446.043457,831.772278 3444.750000,859.394287 3430.140381,875.401184 
	C3415.760254,891.156799 3389.147705,894.553284 3370.599609,883.000183 
	C3354.979736,873.271057 3346.454590,852.661682 3350.396484,833.318176 
	C3354.361328,813.859009 3368.992188,799.907654 3387.299805,797.600098 
	C3389.920654,797.269775 3392.515137,796.729858 3395.995117,796.286987 
M3366.373291,839.732849 
	C3366.371094,842.054565 3366.182129,844.393799 3366.398193,846.695068 
	C3367.658936,860.130920 3377.337646,871.020752 3390.334229,873.760620 
	C3402.362793,876.296326 3415.218262,870.226501 3421.352539,859.114380 
	C3428.897949,845.445984 3426.329590,829.937561 3414.765137,819.337280 
	C3405.085449,810.465027 3391.070557,809.829529 3379.028076,817.515747 
	C3371.429199,822.366089 3368.491699,829.903687 3366.373291,839.732849 
z"/>
<path fill="#093B38" opacity="1.000000" stroke="none" 
	d="
M2719.607422,863.912842 
	C2719.607666,841.663513 2719.607666,820.400940 2719.607666,798.724548 
	C2725.143311,798.724548 2729.991943,798.724548 2735.159424,798.724548 
	C2735.522217,801.699036 2735.836670,804.275757 2736.233887,807.533081 
	C2737.518799,806.528076 2738.535645,805.864319 2739.397949,805.038696 
	C2753.219727,791.804810 2777.114990,794.059143 2786.193115,809.747681 
	C2788.930664,814.478455 2791.299561,820.180847 2791.459961,825.509766 
	C2792.069336,845.746338 2791.705566,866.012268 2791.705566,886.990112 
	C2786.347168,886.990112 2781.559814,886.990112 2775.606934,886.990112 
	C2775.606934,883.978760 2775.607422,880.768677 2775.607178,877.558594 
	C2775.606201,862.586121 2775.953125,847.602112 2775.454590,832.646240 
	C2775.212646,825.392578 2773.903809,817.906006 2765.971680,814.276306 
	C2758.388184,810.806030 2751.049561,811.561035 2744.218506,816.110107 
	C2737.846436,820.353149 2735.674561,826.761169 2735.700439,834.168884 
	C2735.750244,848.475708 2735.714844,862.782837 2735.714600,877.089844 
	C2735.714600,880.326294 2735.714355,883.562683 2735.714355,887.253296 
	C2730.135742,887.253296 2725.587646,887.253296 2719.607178,887.253296 
	C2719.607178,879.869141 2719.607178,872.384338 2719.607422,863.912842 
z"/>
<path fill="#083936" opacity="1.000000" stroke="none" 
	d="
M3159.402100,798.293457 
	C3166.515869,797.898987 3163.078857,803.755798 3165.737061,806.740906 
	C3167.468750,805.347534 3169.058838,803.898193 3170.811768,802.683655 
	C3188.406494,790.493286 3216.798828,795.979858 3219.396240,822.242737 
	C3221.503906,843.558777 3219.823975,865.249390 3219.823975,887.239990 
	C3214.881592,887.239990 3210.340820,887.239990 3205.018799,887.239990 
	C3204.782227,884.789612 3204.340088,882.258850 3204.327148,879.725830 
	C3204.257080,866.084839 3204.301758,852.443359 3204.286377,838.802002 
	C3204.283447,836.142944 3204.359619,833.468079 3204.110107,830.827820 
	C3202.926514,818.309692 3196.521729,812.107422 3185.202393,812.374756 
	C3173.234619,812.657471 3164.788086,820.264038 3164.474121,832.047363 
	C3164.075439,847.008911 3164.375732,861.989197 3164.374512,876.961365 
	C3164.374268,880.209717 3164.374268,883.458069 3164.374268,887.204773 
	C3158.656982,887.204773 3153.828857,887.204773 3148.304932,887.204773 
	C3148.304932,857.999939 3148.304932,828.880371 3148.304932,798.289246 
	C3151.526855,798.289246 3155.023193,798.289246 3159.402100,798.293457 
z"/>
<path fill="#0B3C39" opacity="1.000000" stroke="none" 
	d="
M2746.190430,1033.923340 
	C2737.910400,1029.144287 2733.034912,1022.760986 2732.323242,1013.764526 
	C2731.555664,1004.062012 2736.695312,996.043274 2746.175781,991.655884 
	C2762.874512,983.927979 2782.833252,989.757751 2794.091553,1006.539185 
	C2790.188477,1009.191528 2786.254883,1011.864563 2782.067139,1014.710449 
	C2778.816162,1012.155640 2776.034912,1009.914673 2773.195068,1007.751099 
	C2768.431396,1004.121826 2762.978027,1003.243591 2757.158447,1003.796814 
	C2753.077393,1004.184753 2749.715332,1006.267151 2749.229492,1010.128479 
	C2748.930664,1012.506836 2750.554443,1016.144592 2752.514160,1017.583435 
	C2756.992188,1020.871216 2762.172119,1023.221069 2767.131592,1025.829468 
	C2772.697266,1028.756714 2778.295166,1031.628540 2783.947266,1034.384277 
	C2799.254639,1041.848022 2797.874512,1068.952881 2781.704102,1077.536499 
	C2764.160889,1086.848755 2736.701904,1080.453369 2728.489990,1059.100098 
	C2732.199951,1056.750488 2736.047119,1054.313965 2739.876221,1051.888794 
	C2742.938965,1054.722412 2745.786621,1057.350342 2748.626953,1059.986084 
	C2754.081543,1065.047607 2760.530762,1067.019531 2767.877930,1066.165039 
	C2772.535645,1065.623413 2776.061523,1063.525879 2777.554688,1058.828125 
	C2779.078857,1054.033447 2777.139160,1050.002319 2773.544189,1047.383057 
	C2769.572754,1044.489624 2764.920166,1042.492432 2760.460205,1040.318726 
	C2755.995850,1038.143066 2751.402588,1036.231445 2746.190430,1033.923340 
z"/>
<path fill="#093B38" opacity="1.000000" stroke="none" 
	d="
M3545.264160,1081.335938 
	C3532.091064,1078.331055 3523.087402,1071.298218 3516.771484,1059.604614 
	C3520.948730,1056.821045 3524.733643,1054.299072 3529.941895,1050.828613 
	C3532.406738,1053.872192 3534.774170,1057.048828 3537.405029,1059.989746 
	C3542.549316,1065.739746 3549.346924,1066.787842 3556.568359,1066.205078 
	C3561.329590,1065.820557 3564.895752,1063.299316 3566.058838,1058.715088 
	C3567.175781,1054.314087 3566.191406,1049.927124 3562.174316,1047.144531 
	C3559.194580,1045.080688 3555.895996,1043.432495 3552.614990,1041.858154 
	C3546.630615,1038.986450 3540.357422,1036.663330 3534.557617,1033.470215 
	C3523.683105,1027.483154 3519.835205,1018.922974 3521.865967,1006.761414 
	C3523.245605,998.499084 3531.049561,991.766846 3541.729492,989.625183 
	C3558.922607,986.177551 3573.750000,992.066650 3582.615234,1006.573730 
	C3578.745850,1009.258728 3574.813965,1011.986938 3570.787109,1014.781128 
	C3567.434570,1012.057434 3564.671875,1009.747009 3561.839111,1007.526306 
	C3556.746338,1003.534241 3550.740234,1002.876282 3544.786865,1004.099304 
	C3542.281006,1004.614075 3538.736328,1007.064636 3538.345215,1009.140503 
	C3537.835693,1011.844971 3539.129639,1016.062378 3541.190186,1017.820984 
	C3544.897949,1020.984741 3549.694336,1022.920288 3554.143555,1025.154419 
	C3559.485352,1027.836792 3565.065918,1030.061035 3570.316895,1032.901733 
	C3579.641602,1037.946167 3584.672119,1045.888916 3583.577637,1056.578491 
	C3582.439209,1067.694336 3576.630615,1076.226318 3565.715088,1079.489990 
	C3559.516602,1081.343506 3552.645508,1080.947632 3545.264160,1081.335938 
z"/>
<path fill="#083936" opacity="1.000000" stroke="none" 
	d="
M2931.906982,824.469543 
	C2925.949951,833.774780 2924.593994,843.170288 2927.647949,852.807373 
	C2935.349854,877.109802 2961.902832,879.486389 2978.794189,866.372742 
	C2981.076660,864.600586 2982.566895,861.807617 2984.423828,859.487366 
	C2985.072266,859.800293 2985.720459,860.113281 2986.368896,860.426208 
	C2986.368896,865.681641 2986.766602,870.981934 2986.181152,876.171326 
	C2985.933594,878.367432 2984.093018,881.095032 2982.173340,882.284851 
	C2953.159180,900.269226 2914.629883,884.898438 2910.029541,850.895386 
	C2906.449951,824.440308 2920.771729,798.895996 2954.221680,796.442139 
	C2963.225830,795.781677 2971.949219,798.358948 2980.062744,802.651123 
	C2984.668945,805.087891 2986.998779,808.407288 2986.461670,813.829407 
	C2986.075195,817.732910 2986.386475,821.705505 2986.386475,827.339172 
	C2977.007812,816.376038 2966.308105,811.716370 2953.475098,812.406494 
	C2944.674561,812.879578 2937.572998,816.674988 2931.906982,824.469543 
z"/>
<path fill="#0B3C39" opacity="1.000000" stroke="none" 
	d="
M2587.798828,823.972778 
	C2579.994141,815.993164 2571.115234,812.248352 2560.568604,812.377930 
	C2543.643066,812.586060 2530.117920,825.670837 2530.627686,843.114014 
	C2531.182617,862.111694 2544.830322,874.247742 2560.464600,874.254761 
	C2572.482178,874.260071 2582.182129,869.206848 2591.038818,858.900635 
	C2592.249756,866.284973 2591.512695,872.373230 2591.632080,878.209534 
	C2576.255371,891.755554 2553.938965,893.714661 2535.866699,883.291748 
	C2520.378174,874.359009 2511.654785,853.815063 2514.649658,835.081543 
	C2519.895020,802.272156 2555.551025,787.594055 2583.913086,802.040161 
	C2589.621338,804.947693 2592.625000,808.775391 2591.799072,815.432800 
	C2591.358887,818.979675 2591.720947,822.626160 2591.720947,827.818542 
	C2589.831055,826.111755 2588.992920,825.354858 2587.798828,823.972778 
z"/>
<path fill="#093A37" opacity="1.000000" stroke="none" 
	d="
M3033.361816,1079.711304 
	C3029.530518,1079.714966 3026.568359,1079.714966 3022.948730,1079.714966 
	C3022.948730,1029.648560 3022.948730,980.163452 3022.948730,930.142395 
	C3027.590576,930.142395 3032.469971,930.142395 3037.968262,930.142395 
	C3038.104248,931.959229 3038.371094,933.867249 3038.372070,935.775452 
	C3038.395264,980.739807 3038.461182,1025.704590 3038.234619,1070.667847 
	C3038.218994,1073.771362 3041.366943,1079.339722 3033.361816,1079.711304 
z"/>
<path fill="#0B3C39" opacity="1.000000" stroke="none" 
	d="
M3026.399414,782.449829 
	C3026.399414,788.008545 3026.399414,792.621216 3026.399414,797.780701 
	C3031.432617,798.083252 3035.972900,798.356140 3041.100342,798.664307 
	C3041.100342,803.859192 3041.100342,808.672974 3041.100342,813.885254 
	C3036.568359,814.229675 3032.043945,814.573486 3026.656738,814.982910 
	C3026.656738,839.112366 3026.656738,862.919983 3026.656738,887.218994 
	C3020.964355,887.218994 3016.173584,887.218994 3010.522949,887.218994 
	C3010.522949,863.073547 3010.522949,839.264526 3010.522949,814.988098 
	C3005.498047,814.598938 3001.282715,814.272522 2996.798584,813.925232 
	C2996.798584,808.856384 2996.798584,804.038879 2996.798584,798.669434 
	C3001.178467,798.434570 3005.087891,798.224915 3009.983887,797.962341 
	C3009.983887,788.572144 3009.983887,779.094604 3009.983887,768.957520 
	C3015.737305,768.957520 3020.540771,768.957520 3026.399414,768.957520 
	C3026.399414,773.053040 3026.399414,777.278320 3026.399414,782.449829 
z"/>
<path fill="#11403E" opacity="1.000000" stroke="none" 
	d="
M2833.753174,1061.866455 
	C2833.753174,1068.095947 2833.753174,1073.345947 2833.753174,1079.162354 
	C2827.779297,1079.162354 2822.648438,1079.162354 2816.876953,1079.162354 
	C2816.876953,1049.948120 2816.876953,1020.872131 2816.876953,991.017029 
	C2821.879883,991.017029 2827.009521,991.017029 2833.515137,991.017029 
	C2834.055664,1002.379883 2833.664307,1014.205811 2833.737549,1026.005859 
	C2833.809570,1037.632446 2833.753174,1049.260010 2833.753174,1061.866455 
z"/>
<path fill="#0B3C39" opacity="1.000000" stroke="none" 
	d="
M3083.407715,990.530396 
	C3084.761719,992.911926 3085.650146,995.090759 3085.658203,997.272888 
	C3085.754883,1022.821228 3085.726074,1048.369995 3085.703125,1073.918579 
	C3085.701660,1075.515259 3085.471680,1077.111572 3085.310791,1079.189209 
	C3079.987549,1079.189209 3075.172363,1079.189209 3069.975098,1079.189209 
	C3069.975098,1049.848267 3069.975098,1020.713745 3069.975098,990.329224 
	C3074.231445,990.329224 3078.382324,990.329224 3083.407715,990.530396 
z"/>
<path fill="#0B3C39" opacity="1.000000" stroke="none" 
	d="
M2975.600586,1051.960571 
	C2975.600830,1031.014404 2975.600830,1011.061890 2975.600830,990.792969 
	C2981.135254,990.792969 2985.953125,990.792969 2991.223145,990.792969 
	C2991.223145,1020.451843 2991.223145,1049.591675 2991.223145,1079.228516 
	C2986.197266,1079.228516 2981.654297,1079.228516 2975.600586,1079.228516 
	C2975.600586,1070.567139 2975.600586,1061.760620 2975.600586,1051.960571 
z"/>
<path fill="#0B3C39" opacity="1.000000" stroke="none" 
	d="
M2985.510742,965.702271 
	C2975.600342,964.069214 2970.963379,958.957214 2972.645020,952.377686 
	C2973.856201,947.638733 2977.736328,944.189758 2982.428955,943.680359 
	C2987.227783,943.159485 2992.476318,945.735535 2993.701416,950.043884 
	C2994.970459,954.506409 2995.630371,959.367981 2991.501465,962.982788 
	C2990.068604,964.237305 2988.032959,964.803284 2985.510742,965.702271 
z"/>
<path fill="#0B3C39" opacity="1.000000" stroke="none" 
	d="
M3086.315918,947.801514 
	C3087.316406,950.858337 3088.409912,953.421082 3088.273438,955.916504 
	C3087.920410,962.365662 3083.259033,966.175598 3076.995361,965.714966 
	C3071.200684,965.288818 3066.177002,960.095642 3066.301758,954.660522 
	C3066.436768,948.768127 3071.115234,943.528992 3077.006104,943.821228 
	C3080.003418,943.970032 3082.904053,946.062805 3086.315918,947.801514 
z"/>
<path fill="#0B3C39" opacity="1.000000" stroke="none" 
	d="
M2832.176758,946.246094 
	C2837.899658,956.178894 2835.710205,964.083984 2827.422119,965.570068 
	C2822.882568,966.383972 2818.891602,965.298645 2816.000000,961.274963 
	C2813.167236,957.333679 2812.952393,953.340210 2815.247559,949.136475 
	C2817.598389,944.830566 2821.376953,943.173767 2826.050049,943.789429 
	C2827.943848,944.038818 2829.726807,945.130127 2832.176758,946.246094 
z"/>
<path fill="#FBFCFC" opacity="1.000000" stroke="none" 
	d="
M1969.110596,839.319458 
	C1994.795898,785.863037 2061.750977,782.255188 2095.321533,804.275513 
	C2118.465088,819.456238 2129.276123,841.452271 2132.280518,868.985474 
	C2074.724365,868.985474 2017.705322,868.985474 1959.655640,868.985474 
	C1960.623657,858.564758 1964.723389,849.275208 1969.110596,839.319458 
z"/>
<path fill="#FBFCFC" opacity="1.000000" stroke="none" 
	d="
M812.014832,869.674805 
	C802.054443,869.674805 793.090332,869.674805 782.746094,869.674805 
	C784.315552,863.710510 785.415283,858.593994 787.005676,853.634827 
	C800.729614,810.840759 835.908875,789.130493 880.356323,791.983704 
	C922.987183,794.720337 951.248657,825.677185 955.606934,866.128235 
	C955.674561,866.755859 955.381592,867.422424 955.250732,868.069580 
	C955.059631,868.318237 954.908813,868.606995 954.680481,868.807251 
	C954.434509,869.023010 954.116333,869.303223 953.828918,869.304077 
	C906.889709,869.442444 859.950378,869.558228 812.014832,869.674805 
z"/>
<path fill="#FBFCFC" opacity="1.000000" stroke="none" 
	d="
M3125.820557,1028.971069 
	C3130.840332,1011.586182 3140.533203,1003.607483 3155.761230,1004.527344 
	C3160.183838,1004.794556 3165.027832,1006.270813 3168.736084,1008.657410 
	C3179.961914,1015.882019 3183.540527,1026.933350 3182.038574,1039.775146 
	C3180.594727,1052.124146 3173.928711,1060.685059 3162.232910,1064.922852 
	C3146.560303,1070.602173 3127.601318,1057.986938 3125.837158,1040.793823 
	C3125.465576,1037.170410 3125.737793,1033.481079 3125.820557,1028.971069 
z"/>
<path fill="#FAFBFB" opacity="1.000000" stroke="none" 
	d="
M2879.680664,1030.736084 
	C2880.469971,1010.603943 2905.178223,994.563904 2925.237305,1010.706055 
	C2935.009521,1018.570068 2937.476562,1029.307007 2935.624268,1041.216431 
	C2933.841553,1052.679810 2927.634521,1060.702881 2916.461670,1064.573975 
	C2901.238525,1069.848389 2884.264404,1060.963013 2880.516846,1045.327026 
	C2879.465820,1040.941406 2879.907715,1036.198120 2879.680664,1030.736084 
z"/>
<path fill="#F9FAFA" opacity="1.000000" stroke="none" 
	d="
M3350.991211,1065.752930 
	C3331.809082,1059.626343 3323.084961,1045.170166 3327.292969,1027.734375 
	C3330.915771,1012.724426 3340.803223,1004.439758 3355.200928,1004.351379 
	C3369.125000,1004.265991 3379.294922,1012.984680 3382.829590,1028.019531 
	C3388.204590,1050.882935 3368.672363,1069.714233 3350.991211,1065.752930 
z"/>
<path fill="#FAFBFB" opacity="1.000000" stroke="none" 
	d="
M3289.286133,874.153503 
	C3272.226318,873.383789 3263.296143,867.856689 3259.405029,854.764526 
	C3255.629395,842.060791 3256.115967,829.687195 3266.776855,819.827148 
	C3280.588867,807.053162 3301.921387,811.033386 3310.608643,827.731628 
	C3318.880371,843.631165 3314.002441,869.009094 3289.286133,874.153503 
z"/>
<path fill="#F9FAFA" opacity="1.000000" stroke="none" 
	d="
M2538.741211,1029.294922 
	C2540.196045,1025.101074 2540.986816,1021.447205 2542.730713,1018.325806 
	C2553.175049,999.628784 2580.306885,999.492249 2591.132812,1017.967163 
	C2598.917480,1031.252197 2596.657227,1049.294434 2585.442871,1058.911255 
	C2577.436035,1065.777222 2568.112305,1068.383423 2557.735352,1064.540771 
	C2545.889160,1060.153931 2540.329834,1050.888062 2538.447754,1039.023804 
	C2537.987305,1036.119629 2538.468994,1033.066040 2538.741211,1029.294922 
z"/>
<path fill="#F2F5F5" opacity="1.000000" stroke="none" 
	d="
M3458.684082,1003.666260 
	C3477.630615,1003.668884 3484.572266,1009.091919 3486.796387,1025.296265 
	C3470.626709,1025.296265 3454.504639,1025.296265 3438.378418,1025.296265 
	C3438.077637,1013.899048 3443.921387,1007.389709 3458.684082,1003.666260 
z"/>
<path fill="#F2F5F5" opacity="1.000000" stroke="none" 
	d="
M2855.950195,811.653198 
	C2871.325195,812.842041 2877.918213,819.014709 2879.464111,833.253174 
	C2863.236572,833.253174 2847.047363,833.253174 2830.855713,833.253174 
	C2831.268555,820.172485 2839.934570,812.434814 2855.950195,811.653198 
z"/>
<path fill="#F9FAFA" opacity="1.000000" stroke="none" 
	d="
M3245.355957,1038.110474 
	C3254.394043,1038.505859 3262.603516,1038.947632 3270.781006,1039.725586 
	C3276.081055,1040.229614 3277.007324,1043.981689 3276.143555,1048.417480 
	C3272.720215,1065.996216 3251.956787,1072.292236 3239.601562,1063.757446 
	C3229.781982,1056.974365 3232.341553,1044.230469 3245.355957,1038.110474 
z"/>
<path fill="#F9FAFA" opacity="1.000000" stroke="none" 
	d="
M3075.409668,846.095581 
	C3084.437744,846.497925 3092.640381,846.953247 3100.812744,847.729980 
	C3105.327393,848.159119 3106.738525,851.097229 3106.291016,855.460815 
	C3105.378662,864.356934 3100.193848,870.060303 3092.436279,873.293823 
	C3084.063965,876.783813 3075.537354,876.904663 3068.213379,870.585449 
	C3061.821045,865.070190 3062.110352,855.112244 3068.603027,849.699707 
	C3070.336914,848.254211 3072.568848,847.405518 3075.409668,846.095581 
z"/>
<path fill="#FAFBFB" opacity="1.000000" stroke="none" 
	d="
M2641.905762,1027.295410 
	C2646.497070,1013.316406 2654.777832,1004.822693 2669.405762,1004.377747 
	C2686.870361,1003.846497 2700.289551,1017.250122 2700.270264,1035.026733 
	C2700.251953,1052.051880 2686.703125,1066.288940 2670.510742,1066.298218 
	C2653.724365,1066.307861 2640.566650,1051.845093 2641.231201,1034.071533 
	C2641.305176,1032.089966 2641.594238,1030.116699 2641.905762,1027.295410 
z"/>
<path fill="#FAFBFB" opacity="1.000000" stroke="none" 
	d="
M2624.247559,835.332642 
	C2630.361084,812.479736 2653.296875,808.453491 2666.118164,815.265503 
	C2681.588867,823.485046 2687.265381,844.523315 2677.790771,860.118591 
	C2668.889893,874.768677 2650.354248,878.715210 2636.176025,868.898804 
	C2628.587891,863.645325 2624.617920,856.171448 2623.813477,847.106750 
	C2623.492920,843.493164 2623.967529,839.809082 2624.247559,835.332642 
z"/>
<path fill="#FAFBFB" opacity="1.000000" stroke="none" 
	d="
M3366.444824,838.914917 
	C3368.491699,829.903687 3371.429199,822.366089 3379.028076,817.515747 
	C3391.070557,809.829529 3405.085449,810.465027 3414.765137,819.337280 
	C3426.329590,829.937561 3428.897949,845.445984 3421.352539,859.114380 
	C3415.218262,870.226501 3402.362793,876.296326 3390.334229,873.760620 
	C3377.337646,871.020752 3367.658936,860.130920 3366.398193,846.695068 
	C3366.182129,844.393799 3366.371094,842.054565 3366.444824,838.914917 
z"/>
</svg>